<svg version="1.1" id="Layer_1" xmlns="http://www.w3.org/2000/svg" xmlns:xlink="http://www.w3.org/1999/xlink" x="0px" y="0px"
	 width="100%" viewBox="0 0 3500 3500" enable-background="new 0 0 3500 3500" xml:space="preserve">
<path fill="transparent" opacity="1.000000" stroke="none" 
	d="
M1716.000000,3502.000000 
	C1144.699097,3502.000000 573.398254,3502.000000 2.048680,3502.000000 
	C2.048680,2335.432129 2.048680,1168.864136 2.048680,2.148086 
	C1168.501709,2.148086 2335.003418,2.148086 3501.752441,2.148086 
	C3501.752441,1168.435303 3501.752441,2334.870850 3501.752441,3502.000000 
	C2915.263672,3502.000000 2328.527100,3502.000000 1740.598877,3501.367920 
	C1731.399414,3497.356445 1723.658813,3498.921143 1716.000000,3502.000000 
M2120.192139,3367.710693 
	C2117.276123,3367.910645 2114.168457,3367.833984 2113.408691,3372.134766 
	C2113.605713,3372.089844 2113.802979,3372.044922 2115.340820,3371.902344 
	C2117.748535,3370.780518 2120.156494,3369.658936 2123.228516,3367.972168 
	C2123.130859,3367.496582 2123.033203,3367.020996 2122.935547,3366.545410 
	C2122.508057,3366.903809 2122.080811,3367.262451 2120.192139,3367.710693 
M3079.608398,1996.341431 
	C3079.458740,1996.536133 3079.308838,1996.730957 3079.158936,1996.925659 
	C3079.544434,1997.149780 3079.929688,1997.374023 3081.138672,1999.145508 
	C3080.889160,2002.438232 3080.639648,2005.730835 3080.233154,2011.093384 
	C3086.739502,2004.121460 3087.165771,1998.294556 3083.720703,1990.568115 
	C3082.310547,1989.050171 3080.657227,1987.854858 3079.904297,1990.846436 
	C3079.479492,1992.534058 3080.110352,1994.487671 3080.137695,1996.158691 
	C3080.137695,1996.158691 3080.342773,1996.186523 3079.608398,1996.341431 
M3133.211914,1661.739868 
	C3133.501709,1656.813843 3133.791504,1651.887817 3134.081299,1646.961670 
	C3133.667236,1646.968140 3133.253174,1646.974731 3132.839111,1646.981201 
	C3130.847900,1651.941284 3128.856445,1656.901489 3125.687988,1662.156616 
	C3121.642578,1667.875244 3122.190674,1669.390381 3130.050781,1675.641602 
	C3130.451660,1677.569946 3130.852295,1679.498169 3131.253174,1681.426514 
	C3131.452148,1681.347656 3131.651123,1681.268799 3131.850098,1681.189941 
	C3131.850098,1675.973511 3131.850098,1670.757202 3132.150146,1664.733032 
	C3132.303223,1664.154053 3132.261475,1663.589478 3133.211914,1661.739868 
M2810.192139,541.146667 
	C2810.682129,541.802551 2811.171875,542.458374 2811.797119,544.900146 
	C2815.436523,549.068726 2819.075928,553.237366 2822.715332,557.405945 
	C2822.930420,550.023193 2820.938721,543.967407 2815.429443,538.282227 
	C2814.710205,534.201111 2813.970703,530.132690 2808.675049,527.562317 
	C2808.171143,531.522644 2807.765137,534.714783 2807.358887,537.906982 
	C2808.001709,537.969055 2808.644531,538.031067 2809.804443,540.016541 
	C2810.116455,540.602417 2810.428467,541.188354 2810.192139,541.146667 
M2356.089111,160.715363 
	C2356.063721,157.827179 2355.352295,155.826706 2351.856934,155.266556 
	C2345.136963,154.189590 2338.496338,152.617798 2329.628662,150.802002 
	C2333.576904,153.330322 2335.762939,154.730270 2338.844971,157.153381 
	C2345.210205,160.765396 2351.575195,164.377411 2358.651855,168.393021 
	C2359.483887,164.952820 2360.376221,162.855774 2356.089111,160.715363 
M2846.261963,2872.053955 
	C2842.453125,2881.816162 2835.971924,2890.014893 2830.497803,2898.794922 
	C2828.951660,2901.274902 2824.927490,2903.428467 2825.093262,2905.485596 
	C2825.377930,2909.017334 2824.150879,2910.327393 2822.025146,2912.728271 
	C2816.668701,2918.778320 2811.528076,2925.253174 2807.672119,2932.307617 
	C2805.442383,2936.386475 2799.506592,2940.016846 2803.007568,2947.140625 
	C2810.535645,2936.771729 2817.680176,2927.177246 2824.560059,2917.396484 
	C2834.382324,2903.432373 2844.254150,2889.464600 2850.124023,2872.121338 
	C2854.185059,2868.456055 2855.893555,2863.853760 2855.152100,2858.144043 
	C2852.596191,2862.549316 2850.040039,2866.954590 2846.261963,2872.053955 
M2354.672607,3236.708740 
	C2356.743652,3235.142822 2358.642578,3233.246826 2360.912842,3232.063721 
	C2376.793701,3223.788330 2392.759277,3215.807373 2407.051514,3204.704834 
	C2421.978027,3193.109375 2437.833984,3182.717285 2452.938232,3171.340820 
	C2464.588867,3162.565430 2476.333740,3153.749023 2486.934082,3143.778564 
	C2511.905762,3120.290039 2536.672119,3096.544434 2560.640137,3072.040527 
	C2576.865234,3055.452637 2592.216309,3037.903076 2606.798584,3019.847412 
	C2619.278320,3004.394775 2630.242920,2987.704102 2641.622803,2971.383301 
	C2649.396729,2960.234131 2656.534912,2948.641113 2664.323730,2937.502930 
	C2670.975098,2927.991699 2678.394775,2919.017090 2685.027100,2909.493896 
	C2692.604248,2898.614258 2699.999023,2887.581543 2706.915283,2876.274170 
	C2719.381592,2855.893066 2731.863525,2835.498779 2743.514893,2814.649658 
	C2752.244629,2799.028564 2760.080566,2782.869873 2767.587891,2766.614990 
	C2775.783691,2748.869385 2783.346680,2730.821289 2790.802490,2712.746826 
	C2796.978027,2697.776855 2802.825195,2682.660645 2808.397949,2667.455322 
	C2814.111328,2651.866211 2819.528320,2636.159912 2824.685791,2620.377686 
	C2830.758301,2601.794922 2836.980713,2583.229248 2842.092529,2564.372803 
	C2847.544678,2544.259521 2851.126221,2523.637695 2858.869141,2504.155518 
	C2859.472656,2502.637207 2859.726807,2500.951660 2859.955566,2499.317383 
	C2861.561035,2487.851562 2862.214355,2476.164062 2864.882568,2464.954346 
	C2870.017334,2443.383789 2876.298096,2422.086426 2882.071777,2400.667236 
	C2884.055664,2393.306885 2886.249756,2385.984863 2887.814941,2378.533203 
	C2891.076904,2363.003418 2893.985107,2347.399170 2897.034668,2331.824707 
	C2897.352783,2330.199463 2897.790771,2328.581299 2897.925781,2326.939697 
	C2899.667480,2305.740234 2904.339111,2285.117676 2910.062012,2264.695801 
	C2910.776367,2262.147217 2911.608887,2259.584717 2911.905518,2256.974121 
	C2913.400391,2243.822266 2914.706787,2230.648926 2916.163330,2217.492676 
	C2916.343506,2215.864746 2917.169434,2214.317139 2917.452393,2212.689941 
	C2920.631104,2194.417969 2925.356201,2176.319336 2923.970215,2157.516357 
	C2923.557129,2151.912842 2922.138184,2146.274170 2922.519287,2140.743896 
	C2923.314453,2129.200439 2924.969238,2117.714600 2926.329834,2106.211914 
	C2928.854736,2084.863037 2932.678223,2063.573975 2933.624512,2042.156982 
	C2934.606201,2019.938843 2935.863281,1997.807983 2937.622314,1975.628540 
	C2939.774658,1948.492676 2939.528076,1921.153320 2939.935059,1893.896240 
	C2940.253418,1872.568481 2939.990234,1851.231934 2939.976074,1829.899292 
	C2939.974365,1827.233398 2940.064453,1824.555664 2939.856445,1821.903564 
	C2938.613037,1806.058350 2936.502197,1790.236816 2936.146729,1774.374390 
	C2934.960693,1721.466797 2937.921631,1668.500000 2933.985107,1615.624756 
	C2933.469482,1608.697754 2932.729736,1601.787476 2932.174072,1594.863037 
	C2931.405762,1585.284424 2930.696533,1575.700928 2930.001953,1566.116577 
	C2929.809570,1563.462280 2929.866699,1560.788086 2929.624023,1558.139893 
	C2928.447021,1545.291748 2927.172119,1532.452515 2926.015625,1519.602661 
	C2925.747314,1516.623413 2926.084717,1513.575806 2925.670166,1510.626099 
	C2923.184570,1492.939575 2920.549072,1475.273926 2917.990723,1457.597534 
	C2917.280029,1452.687012 2916.584961,1447.772217 2916.008789,1442.844604 
	C2914.241699,1427.731812 2912.705078,1412.589844 2910.746094,1397.502441 
	C2909.468018,1387.657959 2906.461670,1377.911621 2906.265137,1368.080688 
	C2905.911133,1350.364624 2901.420654,1333.315796 2899.565918,1315.875488 
	C2899.182129,1312.266113 2898.473633,1308.692383 2898.001221,1305.090820 
	C2896.667725,1294.928467 2895.595459,1284.726318 2894.019287,1274.602173 
	C2891.932861,1261.201660 2890.061279,1247.723145 2887.018799,1234.526733 
	C2882.703613,1215.809692 2877.245117,1197.359253 2872.584229,1178.717529 
	C2869.451660,1166.188599 2866.470459,1153.597046 2864.126953,1140.903198 
	C2861.878174,1128.725220 2858.071045,1117.190552 2852.834473,1106.020386 
	C2848.494141,1096.761841 2843.584717,1087.634277 2840.513916,1077.945923 
	C2835.016357,1060.601807 2830.800537,1042.854736 2825.880371,1025.323120 
	C2822.381592,1012.855225 2818.794678,1000.405457 2814.909180,988.053894 
	C2809.434326,970.650757 2803.448730,953.407288 2798.062012,935.978027 
	C2794.443604,924.270264 2791.740234,912.280701 2788.158691,900.560364 
	C2784.386475,888.215698 2780.490723,875.874268 2775.854492,863.837402 
	C2770.727783,850.526978 2765.631592,837.056030 2758.829346,824.577698 
	C2750.356934,809.035767 2743.391113,793.028809 2737.655273,776.339966 
	C2731.405762,758.157532 2724.868164,740.062195 2717.936523,722.129944 
	C2712.464111,707.972900 2705.872070,694.249695 2700.365967,680.104675 
	C2690.335205,654.335205 2677.027832,630.244446 2663.402100,606.304321 
	C2657.183838,595.378845 2650.745605,584.573669 2644.202148,573.839050 
	C2636.268555,560.824158 2628.215332,547.879639 2620.028076,535.023132 
	C2614.323975,526.066284 2608.108643,517.433167 2602.468994,508.437592 
	C2589.433838,487.645233 2577.540527,466.067352 2563.466309,446.013611 
	C2545.560303,420.500580 2525.600830,396.402252 2504.296387,373.645874 
	C2483.122070,351.028564 2460.687012,329.586853 2438.659424,307.776550 
	C2432.770508,301.945862 2426.192383,296.816376 2420.209229,291.074615 
	C2410.660400,281.910889 2402.150391,271.460297 2391.749268,263.435547 
	C2374.580811,250.189606 2358.704834,235.689362 2343.344727,220.470001 
	C2330.127930,207.374435 2315.776611,195.610458 2300.427246,184.986313 
	C2265.022461,160.480515 2227.333984,140.268738 2187.582764,123.849556 
	C2170.101074,116.628754 2152.836426,108.637604 2134.863525,102.909538 
	C2109.922363,94.960670 2084.471191,88.565689 2059.110352,81.999718 
	C2046.623413,78.766777 2033.942871,75.973984 2021.180908,74.191231 
	C2005.787964,72.040939 1990.213989,71.192368 1974.724243,69.718002 
	C1973.424683,69.594299 1972.191895,68.789688 1970.891235,68.653519 
	C1955.745239,67.067902 1940.614136,65.232063 1925.429443,64.181877 
	C1919.915039,63.800507 1914.283691,65.670822 1908.678345,65.937622 
	C1891.101318,66.774254 1873.502563,67.166992 1855.930054,68.076004 
	C1847.009888,68.537437 1838.124878,69.708298 1829.229492,70.611801 
	C1818.370117,71.714790 1807.519531,72.907486 1796.657837,73.986580 
	C1793.683228,74.282112 1790.669189,74.183258 1787.695190,74.482674 
	C1776.507568,75.609016 1765.331421,76.847725 1754.145630,77.992378 
	C1751.175903,78.296295 1748.132324,78.121422 1745.216187,78.666641 
	C1728.960571,81.705978 1712.554321,84.188049 1696.545410,88.230484 
	C1678.921753,92.680641 1661.077515,97.208984 1644.415405,104.267075 
	C1624.956665,112.509789 1605.986816,122.420364 1588.021606,133.568085 
	C1551.522705,156.216400 1517.914917,182.792358 1487.670898,213.423019 
	C1481.847290,219.321014 1476.467407,225.670761 1471.067993,231.970810 
	C1461.159912,243.531540 1451.388794,255.209641 1441.562134,266.840118 
	C1429.575684,281.026764 1417.697388,295.306580 1405.573486,309.374756 
	C1394.955811,321.695038 1383.298096,333.195251 1373.465698,346.098602 
	C1357.515625,367.030670 1340.473877,386.888763 1321.749023,405.350952 
	C1319.173462,407.890350 1316.983643,410.883057 1314.935913,413.884583 
	C1307.837158,424.290253 1301.013550,434.885162 1293.835449,445.234833 
	C1284.377930,458.871063 1274.634033,472.308197 1265.106567,485.896423 
	C1255.777344,499.201843 1246.306885,512.419617 1237.383911,525.994873 
	C1230.287842,536.790588 1223.669189,547.923584 1217.308838,559.172791 
	C1211.461182,569.515259 1206.661133,580.458984 1200.653931,590.700378 
	C1189.584106,609.572815 1177.568359,627.895752 1166.683960,646.870422 
	C1154.323486,668.417969 1142.677856,690.378784 1130.894409,712.253174 
	C1119.564331,733.286072 1108.593262,754.512817 1097.210693,775.516785 
	C1085.884766,796.416321 1074.527100,817.308594 1062.654175,837.898926 
	C1052.209351,856.012634 1040.747681,873.539001 1030.255005,891.626282 
	C1018.260437,912.302246 1006.714783,933.242554 995.237183,954.212036 
	C991.122681,961.729309 987.287659,969.476562 984.182739,977.452759 
	C978.421875,992.251892 973.850525,1007.529541 967.741943,1022.173340 
	C961.634216,1036.815308 953.945007,1050.789307 947.498596,1065.300293 
	C937.257446,1088.353027 927.162476,1111.480957 917.582581,1134.814087 
	C907.992065,1158.173340 899.115784,1181.825562 889.913879,1205.344360 
	C883.645386,1221.365479 877.677979,1237.514771 870.973999,1253.351807 
	C865.565796,1266.127808 859.343201,1278.563843 853.329041,1291.077271 
	C842.395630,1313.825806 832.445679,1337.137451 820.085815,1359.088257 
	C802.639099,1390.073242 791.417725,1423.154663 781.699097,1457.063110 
	C775.681152,1478.060181 768.605530,1498.784790 761.218140,1519.349121 
	C754.977295,1536.721802 747.253479,1553.557495 740.826904,1570.868774 
	C733.795654,1589.808716 727.801941,1609.132935 720.818604,1628.091675 
	C707.989197,1662.921509 695.511353,1697.865723 685.263184,1733.552246 
	C680.965515,1748.517944 677.210571,1763.646118 673.504028,1778.772705 
	C670.668762,1790.343628 668.567139,1802.096680 665.641846,1813.642578 
	C662.878357,1824.549927 658.767212,1835.148315 656.492432,1846.139893 
	C652.402588,1865.901489 649.252319,1885.857178 645.692993,1905.728882 
	C641.026611,1931.781250 636.413086,1957.843262 631.646912,1983.877441 
	C627.832703,2004.712524 623.634888,2025.478882 620.000488,2046.344360 
	C618.641052,2054.149170 619.782593,2062.609863 617.336548,2069.956787 
	C612.918335,2083.228027 612.754761,2097.070312 612.525696,2110.324707 
	C611.819031,2151.218750 613.378906,2192.151611 614.073120,2233.069336 
	C614.089966,2234.063477 614.292175,2235.053467 614.388245,2236.047363 
	C615.598389,2248.559570 616.843811,2261.068115 617.987793,2273.586426 
	C618.320190,2277.224121 618.124573,2280.917725 618.574524,2284.535400 
	C620.288879,2298.317627 622.235962,2312.071045 623.968567,2325.851318 
	C626.114685,2342.919922 628.152649,2360.002197 630.197632,2377.083252 
	C630.865540,2382.662109 631.314331,2388.268311 632.034607,2393.839844 
	C632.882446,2400.398438 633.681458,2406.977295 634.916992,2413.468506 
	C637.816711,2428.702637 641.238708,2443.841553 643.902588,2459.114258 
	C645.377869,2467.572754 644.715332,2476.491455 646.847229,2484.729004 
	C650.831055,2500.122070 655.121643,2515.198975 656.635559,2531.289551 
	C659.154175,2558.059326 667.079041,2583.875977 676.179565,2609.124756 
	C686.752808,2638.459229 698.002014,2667.558594 709.453857,2696.564453 
	C716.032349,2713.226562 725.357910,2728.506836 734.378662,2744.000732 
	C748.369324,2768.030762 760.872620,2792.934326 773.773010,2817.589844 
	C784.683899,2838.442871 794.926880,2859.630127 809.064392,2878.653809 
	C814.571899,2886.065186 819.070984,2894.251709 823.730713,2902.259277 
	C828.214539,2909.964111 831.670776,2918.333740 836.688538,2925.649902 
	C861.848877,2962.335693 887.284302,2998.834229 912.830933,3035.252686 
	C919.492859,3044.749756 926.080933,3054.523193 934.132935,3062.774170 
	C951.555176,3080.627441 969.382202,3098.162598 988.011902,3114.739502 
	C1008.293823,3132.786377 1028.358276,3151.219727 1051.163208,3166.226562 
	C1057.256592,3170.236572 1063.779785,3173.773438 1069.254883,3178.510742 
	C1089.673706,3196.177246 1112.700195,3210.044678 1135.304565,3224.506104 
	C1148.731079,3233.096191 1162.640991,3240.935791 1176.397705,3249.003418 
	C1185.857544,3254.551025 1195.175415,3260.425781 1205.006470,3265.235596 
	C1220.462524,3272.798096 1236.408325,3279.353760 1251.944946,3286.758789 
	C1274.071655,3297.305420 1295.872070,3308.543457 1318.091309,3318.886230 
	C1331.837158,3325.284668 1345.868896,3331.237793 1360.181519,3336.214355 
	C1390.234619,3346.664307 1420.561890,3356.325439 1450.766479,3366.340820 
	C1458.002197,3368.739990 1465.069458,3371.772949 1472.438599,3373.618652 
	C1489.778564,3377.961182 1507.288818,3381.617920 1524.665161,3385.821289 
	C1545.586670,3390.881836 1566.408691,3396.354736 1587.340332,3401.371094 
	C1595.384888,3403.299072 1603.570679,3405.402344 1611.766357,3405.770020 
	C1627.401367,3406.471191 1643.134155,3406.723633 1658.743286,3405.783936 
	C1674.638428,3404.826904 1690.251709,3407.712646 1706.308594,3406.529541 
	C1737.100098,3404.260742 1768.144287,3407.172852 1799.037598,3404.099121 
	C1812.558594,3402.754150 1826.205566,3402.719971 1839.779541,3401.844482 
	C1846.380859,3401.419189 1852.958252,3400.525635 1859.524658,3399.675049 
	C1878.877197,3397.167725 1898.159424,3393.348877 1917.583618,3392.410400 
	C1932.805664,3391.675049 1947.010376,3388.109863 1961.340820,3383.940430 
	C1968.941528,3381.729004 1976.631226,3379.809570 1984.320190,3377.919189 
	C1999.757202,3374.123047 2015.466064,3371.224609 2030.614380,3366.513428 
	C2051.189453,3360.114502 2071.325439,3352.310791 2091.687256,3345.216553 
	C2100.736572,3342.063965 2109.849121,3339.083984 2118.983643,3336.186768 
	C2131.266113,3332.291016 2143.799805,3329.095703 2155.861328,3324.617920 
	C2174.373047,3317.744873 2192.358154,3309.426514 2210.958496,3302.825928 
	C2238.154297,3293.175049 2265.149902,3283.221680 2290.760986,3269.753418 
	C2298.900146,3265.473389 2307.604004,3262.267334 2317.444824,3258.034180 
	C2325.433350,3254.474609 2333.584961,3251.231689 2341.349121,3247.236572 
	C2345.971436,3244.857666 2352.427002,3244.556885 2354.672607,3236.708740 
M785.401123,2953.580078 
	C786.434143,2956.283936 787.467163,2958.987793 788.378235,2961.372559 
	C790.772034,2960.782471 792.534729,2959.839111 794.069519,2960.124268 
	C795.408569,2960.372803 796.490540,2962.005859 797.686035,2963.027588 
	C798.139587,2962.563232 798.593201,2962.098877 799.046753,2961.634521 
	C791.274658,2953.521240 786.394775,2943.417969 778.793884,2934.962402 
	C780.744568,2940.730713 782.695251,2946.499023 785.401123,2953.580078 
M2186.340576,3383.269043 
	C2183.186523,3384.579346 2180.032227,3385.889893 2176.878174,3387.200195 
	C2184.097656,3390.812744 2189.288574,3386.956543 2194.795166,3384.586182 
	C2200.166504,3382.273926 2205.491455,3379.853027 2210.836670,3377.479736 
	C2210.522217,3376.720947 2210.207764,3375.961914 2209.893311,3375.202881 
	C2202.510254,3377.683594 2195.127197,3380.164307 2186.340576,3383.269043 
M2941.858887,1639.075439 
	C2943.006104,1638.778442 2945.032715,1638.693726 2945.163330,1638.151611 
	C2946.364502,1633.172485 2944.754395,1628.858521 2940.827881,1625.140259 
	C2941.109375,1629.308960 2941.390625,1633.477783 2941.858887,1639.075439 
M3012.566406,1464.431763 
	C3014.777588,1460.664673 3014.777588,1460.664673 3009.472900,1455.029907 
	C3010.421631,1458.948486 3010.997070,1461.324097 3012.566406,1464.431763 
M2508.239990,3232.511230 
	C2508.936768,3230.810303 2509.633545,3229.109375 2510.330322,3227.408447 
	C2505.404541,3230.491211 2505.404541,3230.491211 2508.239990,3232.511230 
M2798.948730,2950.258057 
	C2798.711182,2950.487061 2798.300537,2950.704834 2798.284668,2950.947998 
	C2798.269043,2951.191406 2798.647949,2951.460205 2798.854004,2951.717773 
	C2799.091797,2951.489014 2799.329346,2951.260010 2798.948730,2950.258057 
M2107.411133,3375.000488 
	C2107.411133,3375.000488 2106.839844,3374.708008 2106.839844,3374.708008 
	C2106.839844,3374.708008 2106.953125,3375.365234 2107.411133,3375.000488 
z"/>
<path fill="#7D947D" opacity="1.000000" stroke="none" 
	d="
M1716.921265,3502.000000 
	C1723.658813,3498.921143 1731.399414,3497.356445 1739.703613,3501.367920 
	C1732.614136,3502.000000 1725.228394,3502.000000 1716.921265,3502.000000 
z"/>
<path fill="#110E0E" opacity="1.000000" stroke="none" 
	d="
M2316.049316,3258.569580 
	C2307.604004,3262.267334 2298.900146,3265.473389 2290.760986,3269.753418 
	C2265.149902,3283.221680 2238.154297,3293.175049 2210.958496,3302.825928 
	C2192.358154,3309.426514 2174.373047,3317.744873 2155.861328,3324.617920 
	C2143.799805,3329.095703 2131.266113,3332.291016 2118.983643,3336.186768 
	C2109.849121,3339.083984 2100.736572,3342.063965 2091.687256,3345.216553 
	C2071.325439,3352.310791 2051.189453,3360.114502 2030.614380,3366.513428 
	C2015.466064,3371.224609 1999.757202,3374.123047 1984.320190,3377.919189 
	C1976.631226,3379.809570 1968.941528,3381.729004 1961.340820,3383.940430 
	C1947.010376,3388.109863 1932.805664,3391.675049 1917.583618,3392.410400 
	C1898.159424,3393.348877 1878.877197,3397.167725 1859.524658,3399.675049 
	C1852.958252,3400.525635 1846.380859,3401.419189 1839.779541,3401.844482 
	C1826.205566,3402.719971 1812.558594,3402.754150 1799.037598,3404.099121 
	C1768.144287,3407.172852 1737.100098,3404.260742 1706.308594,3406.529541 
	C1690.251709,3407.712646 1674.638428,3404.826904 1658.743286,3405.783936 
	C1643.134155,3406.723633 1627.401367,3406.471191 1611.766357,3405.770020 
	C1603.570679,3405.402344 1595.384888,3403.299072 1587.340332,3401.371094 
	C1566.408691,3396.354736 1545.586670,3390.881836 1524.665161,3385.821289 
	C1507.288818,3381.617920 1489.778564,3377.961182 1472.438599,3373.618652 
	C1465.069458,3371.772949 1458.002197,3368.739990 1450.766479,3366.340820 
	C1420.561890,3356.325439 1390.234619,3346.664307 1360.181519,3336.214355 
	C1345.868896,3331.237793 1331.837158,3325.284668 1318.091309,3318.886230 
	C1295.872070,3308.543457 1274.071655,3297.305420 1251.944946,3286.758789 
	C1236.408325,3279.353760 1220.462524,3272.798096 1205.006470,3265.235596 
	C1195.175415,3260.425781 1185.857544,3254.551025 1176.397705,3249.003418 
	C1162.640991,3240.935791 1148.731079,3233.096191 1135.304565,3224.506104 
	C1112.700195,3210.044678 1089.673706,3196.177246 1069.254883,3178.510742 
	C1063.779785,3173.773438 1057.256592,3170.236572 1051.163208,3166.226562 
	C1028.358276,3151.219727 1008.293823,3132.786377 988.011902,3114.739502 
	C969.382202,3098.162598 951.555176,3080.627441 934.132935,3062.774170 
	C926.080933,3054.523193 919.492859,3044.749756 912.830933,3035.252686 
	C887.284302,2998.834229 861.848877,2962.335693 836.688538,2925.649902 
	C831.670776,2918.333740 828.214539,2909.964111 823.730713,2902.259277 
	C819.070984,2894.251709 814.571899,2886.065186 809.064392,2878.653809 
	C794.926880,2859.630127 784.683899,2838.442871 773.773010,2817.589844 
	C760.872620,2792.934326 748.369324,2768.030762 734.378662,2744.000732 
	C725.357910,2728.506836 716.032349,2713.226562 709.453857,2696.564453 
	C698.002014,2667.558594 686.752808,2638.459229 676.179565,2609.124756 
	C667.079041,2583.875977 659.154175,2558.059326 656.635559,2531.289551 
	C655.121643,2515.198975 650.831055,2500.122070 646.847229,2484.729004 
	C644.715332,2476.491455 645.377869,2467.572754 643.902588,2459.114258 
	C641.238708,2443.841553 637.816711,2428.702637 634.916992,2413.468506 
	C633.681458,2406.977295 632.882446,2400.398438 632.034607,2393.839844 
	C631.314331,2388.268311 630.865540,2382.662109 630.197632,2377.083252 
	C628.152649,2360.002197 626.114685,2342.919922 623.968567,2325.851318 
	C622.235962,2312.071045 620.288879,2298.317627 618.574524,2284.535400 
	C618.124573,2280.917725 618.320190,2277.224121 617.987793,2273.586426 
	C616.843811,2261.068115 615.598389,2248.559570 614.388245,2236.047363 
	C614.292175,2235.053467 614.089966,2234.063477 614.073120,2233.069336 
	C613.378906,2192.151611 611.819031,2151.218750 612.525696,2110.324707 
	C612.754761,2097.070312 612.918335,2083.228027 617.336548,2069.956787 
	C619.782593,2062.609863 618.641052,2054.149170 620.000488,2046.344360 
	C623.634888,2025.478882 627.832703,2004.712524 631.646912,1983.877441 
	C636.413086,1957.843262 641.026611,1931.781250 645.692993,1905.728882 
	C649.252319,1885.857178 652.402588,1865.901489 656.492432,1846.139893 
	C658.767212,1835.148315 662.878357,1824.549927 665.641846,1813.642578 
	C668.567139,1802.096680 670.668762,1790.343628 673.504028,1778.772705 
	C677.210571,1763.646118 680.965515,1748.517944 685.263184,1733.552246 
	C695.511353,1697.865723 707.989197,1662.921509 720.818604,1628.091675 
	C727.801941,1609.132935 733.795654,1589.808716 740.826904,1570.868774 
	C747.253479,1553.557495 754.977295,1536.721802 761.218140,1519.349121 
	C768.605530,1498.784790 775.681152,1478.060181 781.699097,1457.063110 
	C791.417725,1423.154663 802.639099,1390.073242 820.085815,1359.088257 
	C832.445679,1337.137451 842.395630,1313.825806 853.329041,1291.077271 
	C859.343201,1278.563843 865.565796,1266.127808 870.973999,1253.351807 
	C877.677979,1237.514771 883.645386,1221.365479 889.913879,1205.344360 
	C899.115784,1181.825562 907.992065,1158.173340 917.582581,1134.814087 
	C927.162476,1111.480957 937.257446,1088.353027 947.498596,1065.300293 
	C953.945007,1050.789307 961.634216,1036.815308 967.741943,1022.173340 
	C973.850525,1007.529541 978.421875,992.251892 984.182739,977.452759 
	C987.287659,969.476562 991.122681,961.729309 995.237183,954.212036 
	C1006.714783,933.242554 1018.260437,912.302246 1030.255005,891.626282 
	C1040.747681,873.539001 1052.209351,856.012634 1062.654175,837.898926 
	C1074.527100,817.308594 1085.884766,796.416321 1097.210693,775.516785 
	C1108.593262,754.512817 1119.564331,733.286072 1130.894409,712.253174 
	C1142.677856,690.378784 1154.323486,668.417969 1166.683960,646.870422 
	C1177.568359,627.895752 1189.584106,609.572815 1200.653931,590.700378 
	C1206.661133,580.458984 1211.461182,569.515259 1217.308838,559.172791 
	C1223.669189,547.923584 1230.287842,536.790588 1237.383911,525.994873 
	C1246.306885,512.419617 1255.777344,499.201843 1265.106567,485.896423 
	C1274.634033,472.308197 1284.377930,458.871063 1293.835449,445.234833 
	C1301.013550,434.885162 1307.837158,424.290253 1314.935913,413.884583 
	C1316.983643,410.883057 1319.173462,407.890350 1321.749023,405.350952 
	C1340.473877,386.888763 1357.515625,367.030670 1373.465698,346.098602 
	C1383.298096,333.195251 1394.955811,321.695038 1405.573486,309.374756 
	C1417.697388,295.306580 1429.575684,281.026764 1441.562134,266.840118 
	C1451.388794,255.209641 1461.159912,243.531540 1471.067993,231.970810 
	C1476.467407,225.670761 1481.847290,219.321014 1487.670898,213.423019 
	C1517.914917,182.792358 1551.522705,156.216400 1588.021606,133.568085 
	C1605.986816,122.420364 1624.956665,112.509789 1644.415405,104.267075 
	C1661.077515,97.208984 1678.921753,92.680641 1696.545410,88.230484 
	C1712.554321,84.188049 1728.960571,81.705978 1745.216187,78.666641 
	C1748.132324,78.121422 1751.175903,78.296295 1754.145630,77.992378 
	C1765.331421,76.847725 1776.507568,75.609016 1787.695190,74.482674 
	C1790.669189,74.183258 1793.683228,74.282112 1796.657837,73.986580 
	C1807.519531,72.907486 1818.370117,71.714790 1829.229492,70.611801 
	C1838.124878,69.708298 1847.009888,68.537437 1855.930054,68.076004 
	C1873.502563,67.166992 1891.101318,66.774254 1908.678345,65.937622 
	C1914.283691,65.670822 1919.915039,63.800507 1925.429443,64.181877 
	C1940.614136,65.232063 1955.745239,67.067902 1970.891235,68.653519 
	C1972.191895,68.789688 1973.424683,69.594299 1974.724243,69.718002 
	C1990.213989,71.192368 2005.787964,72.040939 2021.180908,74.191231 
	C2033.942871,75.973984 2046.623413,78.766777 2059.110352,81.999718 
	C2084.471191,88.565689 2109.922363,94.960670 2134.863525,102.909538 
	C2152.836426,108.637604 2170.101074,116.628754 2187.582764,123.849556 
	C2227.333984,140.268738 2265.022461,160.480515 2300.427246,184.986313 
	C2315.776611,195.610458 2330.127930,207.374435 2343.344727,220.470001 
	C2358.704834,235.689362 2374.580811,250.189606 2391.749268,263.435547 
	C2402.150391,271.460297 2410.660400,281.910889 2420.209229,291.074615 
	C2426.192383,296.816376 2432.770508,301.945862 2438.659424,307.776550 
	C2460.687012,329.586853 2483.122070,351.028564 2504.296387,373.645874 
	C2525.600830,396.402252 2545.560303,420.500580 2563.466309,446.013611 
	C2577.540527,466.067352 2589.433838,487.645233 2602.468994,508.437592 
	C2608.108643,517.433167 2614.323975,526.066284 2620.028076,535.023132 
	C2628.215332,547.879639 2636.268555,560.824158 2644.202148,573.839050 
	C2650.745605,584.573669 2657.183838,595.378845 2663.402100,606.304321 
	C2677.027832,630.244446 2690.335205,654.335205 2700.365967,680.104675 
	C2705.872070,694.249695 2712.464111,707.972900 2717.936523,722.129944 
	C2724.868164,740.062195 2731.405762,758.157532 2737.655273,776.339966 
	C2743.391113,793.028809 2750.356934,809.035767 2758.829346,824.577698 
	C2765.631592,837.056030 2770.727783,850.526978 2775.854492,863.837402 
	C2780.490723,875.874268 2784.386475,888.215698 2788.158691,900.560364 
	C2791.740234,912.280701 2794.443604,924.270264 2798.062012,935.978027 
	C2803.448730,953.407288 2809.434326,970.650757 2814.909180,988.053894 
	C2818.794678,1000.405457 2822.381592,1012.855225 2825.880371,1025.323120 
	C2830.800537,1042.854736 2835.016357,1060.601807 2840.513916,1077.945923 
	C2843.584717,1087.634277 2848.494141,1096.761841 2852.834473,1106.020386 
	C2858.071045,1117.190552 2861.878174,1128.725220 2864.126953,1140.903198 
	C2866.470459,1153.597046 2869.451660,1166.188599 2872.584229,1178.717529 
	C2877.245117,1197.359253 2882.703613,1215.809692 2887.018799,1234.526733 
	C2890.061279,1247.723145 2891.932861,1261.201660 2894.019287,1274.602173 
	C2895.595459,1284.726318 2896.667725,1294.928467 2898.001221,1305.090820 
	C2898.473633,1308.692383 2899.182129,1312.266113 2899.565918,1315.875488 
	C2901.420654,1333.315796 2905.911133,1350.364624 2906.265137,1368.080688 
	C2906.461670,1377.911621 2909.468018,1387.657959 2910.746094,1397.502441 
	C2912.705078,1412.589844 2914.241699,1427.731812 2916.008789,1442.844604 
	C2916.584961,1447.772217 2917.280029,1452.687012 2917.990723,1457.597534 
	C2920.549072,1475.273926 2923.184570,1492.939575 2925.670166,1510.626099 
	C2926.084717,1513.575806 2925.747314,1516.623413 2926.015625,1519.602661 
	C2927.172119,1532.452515 2928.447021,1545.291748 2929.624023,1558.139893 
	C2929.866699,1560.788086 2929.809570,1563.462280 2930.001953,1566.116577 
	C2930.696533,1575.700928 2931.405762,1585.284424 2932.174072,1594.863037 
	C2932.729736,1601.787476 2933.469482,1608.697754 2933.985107,1615.624756 
	C2937.921631,1668.500000 2934.960693,1721.466797 2936.146729,1774.374390 
	C2936.502197,1790.236816 2938.613037,1806.058350 2939.856445,1821.903564 
	C2940.064453,1824.555664 2939.974365,1827.233398 2939.976074,1829.899292 
	C2939.990234,1851.231934 2940.253418,1872.568481 2939.935059,1893.896240 
	C2939.528076,1921.153320 2939.774658,1948.492676 2937.622314,1975.628540 
	C2935.863281,1997.807983 2934.606201,2019.938843 2933.624512,2042.156982 
	C2932.678223,2063.573975 2928.854736,2084.863037 2926.329834,2106.211914 
	C2924.969238,2117.714600 2923.314453,2129.200439 2922.519287,2140.743896 
	C2922.138184,2146.274170 2923.557129,2151.912842 2923.970215,2157.516357 
	C2925.356201,2176.319336 2920.631104,2194.417969 2917.452393,2212.689941 
	C2917.169434,2214.317139 2916.343506,2215.864746 2916.163330,2217.492676 
	C2914.706787,2230.648926 2913.400391,2243.822266 2911.905518,2256.974121 
	C2911.608887,2259.584717 2910.776367,2262.147217 2910.062012,2264.695801 
	C2904.339111,2285.117676 2899.667480,2305.740234 2897.925781,2326.939697 
	C2897.790771,2328.581299 2897.352783,2330.199463 2897.034668,2331.824707 
	C2893.985107,2347.399170 2891.076904,2363.003418 2887.814941,2378.533203 
	C2886.249756,2385.984863 2884.055664,2393.306885 2882.071777,2400.667236 
	C2876.298096,2422.086426 2870.017334,2443.383789 2864.882568,2464.954346 
	C2862.214355,2476.164062 2861.561035,2487.851562 2859.955566,2499.317383 
	C2859.726807,2500.951660 2859.472656,2502.637207 2858.869141,2504.155518 
	C2851.126221,2523.637695 2847.544678,2544.259521 2842.092529,2564.372803 
	C2836.980713,2583.229248 2830.758301,2601.794922 2824.685791,2620.377686 
	C2819.528320,2636.159912 2814.111328,2651.866211 2808.397949,2667.455322 
	C2802.825195,2682.660645 2796.978027,2697.776855 2790.802490,2712.746826 
	C2783.346680,2730.821289 2775.783691,2748.869385 2767.587891,2766.614990 
	C2760.080566,2782.869873 2752.244629,2799.028564 2743.514893,2814.649658 
	C2731.863525,2835.498779 2719.381592,2855.893066 2706.915283,2876.274170 
	C2699.999023,2887.581543 2692.604248,2898.614258 2685.027100,2909.493896 
	C2678.394775,2919.017090 2670.975098,2927.991699 2664.323730,2937.502930 
	C2656.534912,2948.641113 2649.396729,2960.234131 2641.622803,2971.383301 
	C2630.242920,2987.704102 2619.278320,3004.394775 2606.798584,3019.847412 
	C2592.216309,3037.903076 2576.865234,3055.452637 2560.640137,3072.040527 
	C2536.672119,3096.544434 2511.905762,3120.290039 2486.934082,3143.778564 
	C2476.333740,3153.749023 2464.588867,3162.565430 2452.938232,3171.340820 
	C2437.833984,3182.717285 2421.978027,3193.109375 2407.051514,3204.704834 
	C2392.759277,3215.807373 2376.793701,3223.788330 2360.912842,3232.063721 
	C2358.642578,3233.246826 2356.743652,3235.142822 2353.564209,3237.192383 
	C2338.395752,3241.380859 2326.269775,3248.981445 2314.189697,3256.674316 
	C2314.809570,3257.306152 2315.429443,3257.937744 2316.049316,3258.569580 
M2130.906982,3296.099854 
	C2143.205078,3292.102295 2155.577637,3288.318115 2167.786865,3284.066162 
	C2201.792725,3272.223633 2233.700928,3255.731445 2265.385010,3238.906982 
	C2289.749756,3225.969238 2313.043457,3210.963867 2337.672363,3198.587402 
	C2368.122314,3183.285889 2396.912354,3165.978027 2423.201416,3144.074219 
	C2444.109375,3126.654053 2466.756592,3111.325684 2488.556885,3094.968994 
	C2497.844727,3088.000488 2506.682861,3080.407227 2516.184082,3073.753174 
	C2533.519775,3061.612305 2548.419922,3047.150391 2560.843506,3030.022705 
	C2565.916016,3023.029297 2571.540283,3016.436035 2576.918945,3009.665283 
	C2588.908936,2994.572266 2601.846680,2980.126953 2612.684326,2964.248047 
	C2631.379150,2936.856934 2649.146484,2908.808838 2666.618652,2880.612305 
	C2692.889404,2838.217773 2717.588379,2794.886963 2740.032471,2750.340332 
	C2755.881348,2718.883301 2767.826660,2685.738281 2780.882568,2653.054443 
	C2798.183838,2609.742676 2810.168213,2565.015625 2820.344727,2519.692871 
	C2826.281982,2493.250000 2831.887207,2466.730469 2837.399170,2440.195068 
	C2841.302490,2421.403809 2844.869385,2402.541504 2848.458496,2383.686523 
	C2852.350586,2363.237061 2855.474365,2342.619385 2860.063232,2322.330566 
	C2865.534180,2298.139893 2872.906250,2274.372070 2878.148438,2250.138672 
	C2882.894287,2228.199951 2886.348389,2205.947266 2889.516602,2183.711182 
	C2892.648438,2161.731934 2894.745361,2139.603760 2897.229004,2117.533691 
	C2899.417969,2098.082764 2901.791504,2078.646729 2903.561768,2059.156494 
	C2904.882568,2044.617065 2905.274414,2029.995483 2906.254639,2015.422119 
	C2907.523438,1996.558594 2909.365967,1977.724976 2910.224854,1958.844971 
	C2911.176758,1937.915649 2911.227295,1916.946655 2911.813232,1895.998901 
	C2912.064209,1887.032104 2913.381348,1878.045044 2912.992432,1869.120361 
	C2911.909180,1844.259277 2909.353516,1819.441406 2908.891602,1794.578369 
	C2907.963379,1744.612549 2908.397217,1694.621704 2907.531738,1644.654053 
	C2907.165039,1623.481812 2905.262695,1602.314209 2903.472656,1581.194214 
	C2901.434570,1557.147949 2898.831543,1533.147583 2896.306641,1509.144897 
	C2894.162598,1488.762695 2891.999023,1468.378418 2889.444580,1448.045166 
	C2886.770508,1426.760498 2883.487305,1405.552734 2880.722900,1384.278687 
	C2878.762939,1369.192749 2877.409912,1354.027832 2875.446289,1338.942383 
	C2873.274414,1322.257812 2870.917480,1305.591309 2868.265381,1288.976929 
	C2865.769043,1273.338379 2863.321777,1257.658203 2859.894287,1242.208984 
	C2853.730469,1214.423340 2846.788086,1186.811157 2840.293457,1159.097534 
	C2836.811523,1144.238892 2833.153564,1129.465210 2826.583496,1115.577759 
	C2823.035645,1108.077271 2819.057373,1100.686279 2816.457275,1092.852783 
	C2812.187256,1079.988770 2809.049072,1066.754272 2805.137695,1053.765137 
	C2789.262939,1001.046387 2773.639160,948.247314 2757.161621,895.716492 
	C2749.924072,872.642029 2742.280273,849.544434 2728.855225,828.980164 
	C2726.873779,825.945496 2725.436768,822.494080 2724.135498,819.087402 
	C2716.554688,799.245300 2709.262939,779.291260 2701.543701,759.503906 
	C2690.684326,731.667053 2680.989014,703.248413 2668.132812,676.351501 
	C2653.098145,644.897400 2635.863281,614.427002 2618.337646,584.252930 
	C2603.829346,559.273254 2586.859619,535.730469 2572.136963,510.866272 
	C2544.370361,463.973083 2511.677002,421.012848 2473.057373,382.584625 
	C2467.466309,377.021210 2461.043213,372.297394 2455.412354,366.769897 
	C2444.041260,355.607574 2432.938477,344.171570 2421.748779,332.824921 
	C2416.838867,327.845947 2412.008789,322.788147 2407.104980,317.803101 
	C2397.559082,308.098846 2388.786133,297.428711 2378.256104,288.941254 
	C2357.250977,272.010468 2336.948730,254.403809 2318.112549,235.098160 
	C2315.788330,232.715836 2313.449463,230.314941 2310.886230,228.203476 
	C2285.652588,207.419250 2258.336426,189.674774 2229.542480,174.354462 
	C2198.429443,157.800232 2166.076416,143.939453 2132.882812,131.981689 
	C2090.623291,116.758064 2047.390869,105.451073 2002.835571,99.923523 
	C1973.304199,96.259857 1943.858398,93.035164 1913.710205,94.468056 
	C1885.868774,95.791313 1858.125244,98.457176 1830.284546,99.545792 
	C1823.020996,99.829803 1815.690186,100.252747 1808.551392,101.519829 
	C1787.069824,105.332649 1765.577026,109.174728 1744.261841,113.803528 
	C1725.177002,117.947968 1706.469727,123.898621 1687.324829,127.680176 
	C1667.687500,131.559006 1651.397949,142.798264 1633.472290,150.335892 
	C1617.323853,157.126190 1602.184814,166.548279 1588.629150,177.971573 
	C1580.272827,185.013397 1572.223755,192.428726 1564.203491,199.856323 
	C1561.098999,202.731384 1558.654175,206.316513 1555.564697,209.210815 
	C1543.189453,220.804413 1530.240723,231.819489 1518.318481,243.855286 
	C1498.876953,263.482239 1479.877197,283.558502 1461.055786,303.784760 
	C1443.178833,322.996216 1425.236816,342.190704 1408.262085,362.189362 
	C1368.948730,408.506042 1331.238647,456.121216 1295.804688,505.493347 
	C1285.158813,520.326599 1274.892822,535.440125 1264.745605,550.621033 
	C1257.373047,561.651123 1250.668457,573.126892 1243.336304,584.185242 
	C1230.300903,603.845093 1216.577759,623.062256 1203.966675,642.986328 
	C1192.961792,660.372681 1182.787842,678.308899 1172.801270,696.309814 
	C1161.513306,716.656677 1150.588501,737.215820 1139.973511,757.922363 
	C1127.997192,781.283936 1117.453735,805.356995 1103.244751,827.584961 
	C1093.957886,842.112732 1085.051880,856.988953 1077.319702,872.384399 
	C1059.110596,908.640503 1039.729370,944.492737 1024.408447,981.974243 
	C996.582642,1050.048462 964.377441,1116.100586 934.853638,1183.374023 
	C927.112610,1201.012817 917.840637,1218.072998 911.342285,1236.143555 
	C899.854858,1268.087646 887.045044,1299.495361 871.918762,1329.759033 
	C858.068054,1357.470581 847.907532,1386.653809 834.824890,1414.616577 
	C833.844971,1416.711060 833.187378,1418.965332 832.483032,1421.178101 
	C824.538208,1446.137207 817.130737,1471.282715 808.528870,1496.012817 
	C800.888977,1517.977295 791.388672,1539.292480 783.662170,1561.229736 
	C765.684204,1612.273193 750.042175,1664.048706 735.954895,1716.312012 
	C729.566956,1740.010986 720.754028,1763.100586 715.202515,1786.969360 
	C708.129578,1817.380005 699.403503,1847.166992 689.626343,1876.795166 
	C682.383972,1898.741943 674.163879,1920.611938 671.810791,1943.940063 
	C671.213562,1949.861694 670.538574,1955.782349 669.654968,1961.666748 
	C666.025574,1985.835815 661.802673,2009.927734 658.745605,2034.167480 
	C655.312561,2061.387695 652.661072,2088.714600 650.128784,2116.037842 
	C648.386108,2134.840820 646.997009,2153.699219 646.245605,2172.564697 
	C645.609375,2188.538818 646.097351,2204.558105 646.132751,2220.557373 
	C646.138611,2223.211426 646.103943,2225.911865 646.553162,2228.510498 
	C648.171082,2237.868896 650.555603,2247.129639 651.613220,2256.543701 
	C653.905884,2276.951660 655.102173,2297.486816 657.578552,2317.868896 
	C661.369080,2349.067139 665.351318,2380.260498 670.219666,2411.303955 
	C674.016785,2435.516602 678.035767,2459.960693 687.944702,2482.530518 
	C694.643738,2497.789062 699.464966,2513.405762 703.124878,2529.489990 
	C704.580750,2535.887939 704.798462,2542.560547 706.108337,2549.000732 
	C707.679871,2556.727295 710.534363,2564.242432 711.578491,2572.017578 
	C715.370789,2600.255127 724.672119,2626.877441 734.842468,2653.224121 
	C739.240601,2664.617676 744.944519,2675.501221 749.828430,2686.715332 
	C753.399841,2694.916016 755.839233,2703.692627 760.091064,2711.500488 
	C787.421204,2761.688477 815.077332,2811.699707 842.699219,2861.728760 
	C857.009766,2887.647461 873.308594,2912.296631 890.547546,2936.351807 
	C922.143066,2980.440918 956.310608,3022.357178 994.973877,3060.486328 
	C1002.791199,3068.195557 1011.334717,3075.198242 1018.843506,3083.184570 
	C1038.127930,3103.695801 1060.331177,3120.509521 1083.749390,3135.871338 
	C1097.056519,3144.600586 1111.002563,3152.495605 1123.568481,3162.183350 
	C1143.937744,3177.886475 1166.011719,3190.757568 1188.691040,3202.421387 
	C1215.277832,3216.094482 1242.597290,3228.284424 1268.480347,3243.414795 
	C1285.656250,3253.455322 1303.332397,3262.799316 1321.403198,3271.109619 
	C1342.796753,3280.948242 1364.927612,3289.170654 1386.610962,3298.394287 
	C1429.116699,3316.475830 1472.964966,3330.515625 1517.529053,3342.455811 
	C1536.730103,3347.600342 1555.914673,3352.806641 1575.123169,3357.923096 
	C1600.442383,3364.667236 1626.093628,3370.285156 1652.372314,3369.437744 
	C1675.610840,3368.688232 1698.670898,3373.434326 1721.884399,3370.696289 
	C1722.539307,3370.618896 1723.230469,3370.636230 1723.879517,3370.751709 
	C1740.506226,3373.711182 1757.027222,3370.327148 1773.578857,3369.740967 
	C1787.439453,3369.250488 1801.259277,3367.581543 1815.093994,3366.397949 
	C1830.598633,3365.071777 1846.184937,3364.316650 1861.577026,3362.173584 
	C1875.634644,3360.216797 1889.495361,3356.809326 1903.416138,3353.912842 
	C1927.676147,3348.865234 1951.990112,3344.044189 1976.140381,3338.512207 
	C1995.488770,3334.080078 2014.538208,3328.344971 2033.880615,3323.884033 
	C2066.211914,3316.427734 2098.153076,3307.722168 2130.906982,3296.099854 
z"/>
<path fill="#C0C010" opacity="1.000000" stroke="none" 
	d="
M2848.934570,2872.684326 
	C2844.254150,2889.464600 2834.382324,2903.432373 2824.560059,2917.396484 
	C2817.680176,2927.177246 2810.535645,2936.771729 2803.007568,2947.140625 
	C2799.506592,2940.016846 2805.442383,2936.386475 2807.672119,2932.307617 
	C2811.528076,2925.253174 2816.668701,2918.778320 2822.025146,2912.728271 
	C2824.150879,2910.327393 2825.377930,2909.017334 2825.093262,2905.485596 
	C2824.927490,2903.428467 2828.951660,2901.274902 2830.497803,2898.794922 
	C2835.971924,2890.014893 2842.453125,2881.816162 2847.200684,2872.076660 
	C2848.139160,2872.099121 2848.934570,2872.684326 2848.934570,2872.684326 
z"/>
<path fill="#C0C010" opacity="1.000000" stroke="none" 
	d="
M785.023560,2952.923828 
	C782.695251,2946.499023 780.744568,2940.730713 778.793884,2934.962402 
	C786.394775,2943.417969 791.274658,2953.521240 799.046753,2961.634521 
	C798.593201,2962.098877 798.139587,2962.563232 797.686035,2963.027588 
	C796.490540,2962.005859 795.408569,2960.372803 794.069519,2960.124268 
	C792.534729,2959.839111 790.772034,2960.782471 788.378235,2961.372559 
	C787.467163,2958.987793 786.434143,2956.283936 785.023560,2952.923828 
z"/>
<path fill="#7D947D" opacity="1.000000" stroke="none" 
	d="
M2316.747070,3258.301758 
	C2315.429443,3257.937744 2314.809570,3257.306152 2314.189697,3256.674316 
	C2326.269775,3248.981445 2338.395752,3241.380859 2353.233398,3237.796875 
	C2352.427002,3244.556885 2345.971436,3244.857666 2341.349121,3247.236572 
	C2333.584961,3251.231689 2325.433350,3254.474609 2316.747070,3258.301758 
z"/>
<path fill="#7D947D" opacity="1.000000" stroke="none" 
	d="
M2187.042480,3382.957031 
	C2195.127197,3380.164307 2202.510254,3377.683594 2209.893311,3375.202881 
	C2210.207764,3375.961914 2210.522217,3376.720947 2210.836670,3377.479736 
	C2205.491455,3379.853027 2200.166504,3382.273926 2194.795166,3384.586182 
	C2189.288574,3386.956543 2184.097656,3390.812744 2176.878174,3387.200195 
	C2180.032227,3385.889893 2183.186523,3384.579346 2187.042480,3382.957031 
z"/>
<path fill="#BAC12B" opacity="1.000000" stroke="none" 
	d="
M2815.268066,539.639648 
	C2820.938721,543.967407 2822.930420,550.023193 2822.715332,557.405945 
	C2819.075928,553.237366 2815.436523,549.068726 2811.724609,543.931946 
	C2811.371582,542.547913 2811.067871,542.151428 2810.740723,541.774292 
	C2810.428467,541.188354 2810.116455,540.602417 2809.774902,539.038879 
	C2811.586182,538.587341 2813.427246,539.113464 2815.268066,539.639648 
z"/>
<path fill="#C0C010" opacity="1.000000" stroke="none" 
	d="
M2337.949219,156.130157 
	C2335.762939,154.730270 2333.576904,153.330322 2329.628662,150.802002 
	C2338.496338,152.617798 2345.136963,154.189590 2351.856934,155.266556 
	C2355.352295,155.826706 2356.063721,157.827179 2355.700195,161.266159 
	C2349.488037,160.030899 2344.808350,154.753525 2337.949219,156.130157 
z"/>
<path fill="#505727" opacity="1.000000" stroke="none" 
	d="
M2338.396973,156.641754 
	C2344.808350,154.753525 2349.488037,160.030899 2356.110840,161.939407 
	C2360.376221,162.855774 2359.483887,164.952820 2358.651855,168.393021 
	C2351.575195,164.377411 2345.210205,160.765396 2338.396973,156.641754 
z"/>
<path fill="#A6A600" opacity="1.000000" stroke="none" 
	d="
M2815.348633,538.960938 
	C2813.427246,539.113464 2811.586182,538.587341 2809.516357,538.077148 
	C2808.644531,538.031067 2808.001709,537.969055 2807.358887,537.906982 
	C2807.765137,534.714783 2808.171143,531.522644 2808.675049,527.562317 
	C2813.970703,530.132690 2814.710205,534.201111 2815.348633,538.960938 
z"/>
<path fill="#C0C010" opacity="1.000000" stroke="none" 
	d="
M3084.038330,1991.862915 
	C3087.165771,1998.294556 3086.739502,2004.121460 3080.233154,2011.093384 
	C3080.639648,2005.730835 3080.889160,2002.438232 3080.836914,1998.021362 
	C3080.534912,1996.897217 3080.342773,1996.186523 3080.342773,1996.186523 
	C3080.342773,1996.186523 3080.137695,1996.158691 3080.901367,1996.233154 
	C3082.456299,1994.826050 3083.247314,1993.344482 3084.038330,1991.862915 
z"/>
<path fill="#474848" opacity="1.000000" stroke="none" 
	d="
M3130.066406,1674.258301 
	C3122.190674,1669.390381 3121.642578,1667.875244 3127.026367,1662.578369 
	C3129.584717,1663.013184 3130.804932,1663.026245 3132.024902,1663.039307 
	C3132.261475,1663.589478 3132.303223,1664.154053 3131.398438,1665.636963 
	C3130.453125,1669.113281 3130.259766,1671.685791 3130.066406,1674.258301 
z"/>
<path fill="#C0C010" opacity="1.000000" stroke="none" 
	d="
M3132.618408,1662.389648 
	C3130.804932,1663.026245 3129.584717,1663.013184 3127.614990,1662.430786 
	C3128.856445,1656.901489 3130.847900,1651.941284 3132.839111,1646.981201 
	C3133.253174,1646.974731 3133.667236,1646.968140 3134.081299,1646.961670 
	C3133.791504,1651.887817 3133.501709,1656.813843 3132.618408,1662.389648 
z"/>
<path fill="#505727" opacity="1.000000" stroke="none" 
	d="
M2941.765625,1638.360962 
	C2941.390625,1633.477783 2941.109375,1629.308960 2940.827881,1625.140259 
	C2944.754395,1628.858521 2946.364502,1633.172485 2945.163330,1638.151611 
	C2945.032715,1638.693726 2943.006104,1638.778442 2941.765625,1638.360962 
z"/>
<path fill="#A6A600" opacity="1.000000" stroke="none" 
	d="
M2847.811523,2871.729492 
	C2850.040039,2866.954590 2852.596191,2862.549316 2855.152100,2858.144043 
	C2855.893555,2863.853760 2854.185059,2868.456055 2849.529297,2872.402832 
	C2848.934570,2872.684326 2848.139160,2872.099121 2847.811523,2871.729492 
z"/>
<path fill="#505727" opacity="1.000000" stroke="none" 
	d="
M3012.069336,1464.065674 
	C3010.997070,1461.324097 3010.421631,1458.948486 3009.472900,1455.029907 
	C3014.777588,1460.664673 3014.777588,1460.664673 3012.069336,1464.065674 
z"/>
<path fill="#C0C010" opacity="1.000000" stroke="none" 
	d="
M3130.058594,1674.949951 
	C3130.259766,1671.685791 3130.453125,1669.113281 3131.248535,1666.040771 
	C3131.850098,1670.757202 3131.850098,1675.973511 3131.850098,1681.189941 
	C3131.651123,1681.268799 3131.452148,1681.347656 3131.253174,1681.426514 
	C3130.852295,1679.498169 3130.451660,1677.569946 3130.058594,1674.949951 
z"/>
<path fill="#505727" opacity="1.000000" stroke="none" 
	d="
M2507.734619,3232.903320 
	C2505.404541,3230.491211 2505.404541,3230.491211 2510.330322,3227.408447 
	C2509.633545,3229.109375 2508.936768,3230.810303 2507.734619,3232.903320 
z"/>
<path fill="#474848" opacity="1.000000" stroke="none" 
	d="
M3083.879395,1991.215576 
	C3083.247314,1993.344482 3082.456299,1994.826050 3080.965576,1996.314453 
	C3080.110352,1994.487671 3079.479492,1992.534058 3079.904297,1990.846436 
	C3080.657227,1987.854858 3082.310547,1989.050171 3083.879395,1991.215576 
z"/>
<path fill="#404002" opacity="1.000000" stroke="none" 
	d="
M2122.564209,3368.537109 
	C2120.156494,3369.658936 2117.748535,3370.780518 2114.670410,3371.951172 
	C2114.168457,3367.833984 2117.276123,3367.910645 2121.147949,3367.897461 
	C2122.104004,3368.083984 2122.564209,3368.537109 2122.564209,3368.537109 
z"/>
<path fill="#A6A600" opacity="1.000000" stroke="none" 
	d="
M2810.466309,541.460449 
	C2811.067871,542.151428 2811.371582,542.547913 2811.656738,543.039001 
	C2811.171875,542.458374 2810.682129,541.802551 2810.466309,541.460449 
z"/>
<path fill="#C0C010" opacity="1.000000" stroke="none" 
	d="
M2799.257812,2950.644531 
	C2799.329346,2951.260010 2799.091797,2951.489014 2798.854004,2951.717773 
	C2798.647949,2951.460205 2798.269043,2951.191406 2798.284668,2950.947998 
	C2798.300537,2950.704834 2798.711182,2950.487061 2799.257812,2950.644531 
z"/>
<path fill="#404002" opacity="1.000000" stroke="none" 
	d="
M2121.878906,3367.852539 
	C2122.080811,3367.262451 2122.508057,3366.903809 2122.935547,3366.545410 
	C2123.033203,3367.020996 2123.130859,3367.496582 2122.896484,3368.254639 
	C2122.564209,3368.537109 2122.104004,3368.083984 2121.878906,3367.852539 
z"/>
<path fill="#404002" opacity="1.000000" stroke="none" 
	d="
M2113.704346,3372.067383 
	C2113.802979,3372.044922 2113.605713,3372.089844 2113.704346,3372.067383 
z"/>
<path fill="#404002" opacity="1.000000" stroke="none" 
	d="
M2107.182129,3375.182861 
	C2106.953125,3375.365234 2106.839844,3374.708008 2106.839844,3374.708008 
	C2106.839844,3374.708008 2107.411133,3375.000488 2107.182129,3375.182861 
z"/>
<path fill="#474848" opacity="1.000000" stroke="none" 
	d="
M3079.975586,1996.263916 
	C3080.342773,1996.186523 3080.534912,1996.897217 3080.425049,1997.247803 
	C3079.929688,1997.374023 3079.544434,1997.149780 3079.158936,1996.925781 
	C3079.308838,1996.730957 3079.458740,1996.536133 3079.975586,1996.263916 
z"/>
<path fill="#FFFFFE" opacity="1.000000" stroke="none" 
	d="
M2130.130859,3296.246582 
	C2098.153076,3307.722168 2066.211914,3316.427734 2033.880615,3323.884033 
	C2014.538208,3328.344971 1995.488770,3334.080078 1976.140381,3338.512207 
	C1951.990112,3344.044189 1927.676147,3348.865234 1903.416138,3353.912842 
	C1889.495361,3356.809326 1875.634644,3360.216797 1861.577026,3362.173584 
	C1846.184937,3364.316650 1830.598633,3365.071777 1815.093994,3366.397949 
	C1801.259277,3367.581543 1787.439453,3369.250488 1773.578857,3369.740967 
	C1757.027222,3370.327148 1740.506226,3373.711182 1723.879517,3370.751709 
	C1723.230469,3370.636230 1722.539307,3370.618896 1721.884399,3370.696289 
	C1698.670898,3373.434326 1675.610840,3368.688232 1652.372314,3369.437744 
	C1626.093628,3370.285156 1600.442383,3364.667236 1575.123169,3357.923096 
	C1555.914673,3352.806641 1536.730103,3347.600342 1517.529053,3342.455811 
	C1472.964966,3330.515625 1429.116699,3316.475830 1386.610962,3298.394287 
	C1364.927612,3289.170654 1342.796753,3280.948242 1321.403198,3271.109619 
	C1303.332397,3262.799316 1285.656250,3253.455322 1268.480347,3243.414795 
	C1242.597290,3228.284424 1215.277832,3216.094482 1188.691040,3202.421387 
	C1166.011719,3190.757568 1143.937744,3177.886475 1123.568481,3162.183350 
	C1111.002563,3152.495605 1097.056519,3144.600586 1083.749390,3135.871338 
	C1060.331177,3120.509521 1038.127930,3103.695801 1018.843506,3083.184570 
	C1011.334717,3075.198242 1002.791199,3068.195557 994.973877,3060.486328 
	C956.310608,3022.357178 922.143066,2980.440918 890.547546,2936.351807 
	C873.308594,2912.296631 857.009766,2887.647461 842.699219,2861.728760 
	C815.077332,2811.699707 787.421204,2761.688477 760.091064,2711.500488 
	C755.839233,2703.692627 753.399841,2694.916016 749.828430,2686.715332 
	C744.944519,2675.501221 739.240601,2664.617676 734.842468,2653.224121 
	C724.672119,2626.877441 715.370789,2600.255127 711.578491,2572.017578 
	C710.534363,2564.242432 707.679871,2556.727295 706.108337,2549.000732 
	C704.798462,2542.560547 704.580750,2535.887939 703.124878,2529.489990 
	C699.464966,2513.405762 694.643738,2497.789062 687.944702,2482.530518 
	C678.035767,2459.960693 674.016785,2435.516602 670.219666,2411.303955 
	C665.351318,2380.260498 661.369080,2349.067139 657.578552,2317.868896 
	C655.102173,2297.486816 653.905884,2276.951660 651.613220,2256.543701 
	C650.555603,2247.129639 648.171082,2237.868896 646.553162,2228.510498 
	C646.103943,2225.911865 646.138611,2223.211426 646.132751,2220.557373 
	C646.097351,2204.558105 645.609375,2188.538818 646.245605,2172.564697 
	C646.997009,2153.699219 648.386108,2134.840820 650.128784,2116.037842 
	C652.661072,2088.714600 655.312561,2061.387695 658.745605,2034.167480 
	C661.802673,2009.927734 666.025574,1985.835815 669.654968,1961.666748 
	C670.538574,1955.782349 671.213562,1949.861694 671.810791,1943.940063 
	C674.163879,1920.611938 682.383972,1898.741943 689.626343,1876.795166 
	C699.403503,1847.166992 708.129578,1817.380005 715.202515,1786.969360 
	C720.754028,1763.100586 729.566956,1740.010986 735.954895,1716.312012 
	C750.042175,1664.048706 765.684204,1612.273193 783.662170,1561.229736 
	C791.388672,1539.292480 800.888977,1517.977295 808.528870,1496.012817 
	C817.130737,1471.282715 824.538208,1446.137207 832.483032,1421.178101 
	C833.187378,1418.965332 833.844971,1416.711060 834.824890,1414.616577 
	C847.907532,1386.653809 858.068054,1357.470581 871.918762,1329.759033 
	C887.045044,1299.495361 899.854858,1268.087646 911.342285,1236.143555 
	C917.840637,1218.072998 927.112610,1201.012817 934.853638,1183.374023 
	C964.377441,1116.100586 996.582642,1050.048462 1024.408447,981.974243 
	C1039.729370,944.492737 1059.110596,908.640503 1077.319702,872.384399 
	C1085.051880,856.988953 1093.957886,842.112732 1103.244751,827.584961 
	C1117.453735,805.356995 1127.997192,781.283936 1139.973511,757.922363 
	C1150.588501,737.215820 1161.513306,716.656677 1172.801270,696.309814 
	C1182.787842,678.308899 1192.961792,660.372681 1203.966675,642.986328 
	C1216.577759,623.062256 1230.300903,603.845093 1243.336304,584.185242 
	C1250.668457,573.126892 1257.373047,561.651123 1264.745605,550.621033 
	C1274.892822,535.440125 1285.158813,520.326599 1295.804688,505.493347 
	C1331.238647,456.121216 1368.948730,408.506042 1408.262085,362.189362 
	C1425.236816,342.190704 1443.178833,322.996216 1461.055786,303.784760 
	C1479.877197,283.558502 1498.876953,263.482239 1518.318481,243.855286 
	C1530.240723,231.819489 1543.189453,220.804413 1555.564697,209.210815 
	C1558.654175,206.316513 1561.098999,202.731384 1564.203491,199.856323 
	C1572.223755,192.428726 1580.272827,185.013397 1588.629150,177.971573 
	C1602.184814,166.548279 1617.323853,157.126190 1633.472290,150.335892 
	C1651.397949,142.798264 1667.687500,131.559006 1687.324829,127.680176 
	C1706.469727,123.898621 1725.177002,117.947968 1744.261841,113.803528 
	C1765.577026,109.174728 1787.069824,105.332649 1808.551392,101.519829 
	C1815.690186,100.252747 1823.020996,99.829803 1830.284546,99.545792 
	C1858.125244,98.457176 1885.868774,95.791313 1913.710205,94.468056 
	C1943.858398,93.035164 1973.304199,96.259857 2002.835571,99.923523 
	C2047.390869,105.451073 2090.623291,116.758064 2132.882812,131.981689 
	C2166.076416,143.939453 2198.429443,157.800232 2229.542480,174.354462 
	C2258.336426,189.674774 2285.652588,207.419250 2310.886230,228.203476 
	C2313.449463,230.314941 2315.788330,232.715836 2318.112549,235.098160 
	C2336.948730,254.403809 2357.250977,272.010468 2378.256104,288.941254 
	C2388.786133,297.428711 2397.559082,308.098846 2407.104980,317.803101 
	C2412.008789,322.788147 2416.838867,327.845947 2421.748779,332.824921 
	C2432.938477,344.171570 2444.041260,355.607574 2455.412354,366.769897 
	C2461.043213,372.297394 2467.466309,377.021210 2473.057373,382.584625 
	C2511.677002,421.012848 2544.370361,463.973083 2572.136963,510.866272 
	C2586.859619,535.730469 2603.829346,559.273254 2618.337646,584.252930 
	C2635.863281,614.427002 2653.098145,644.897400 2668.132812,676.351501 
	C2680.989014,703.248413 2690.684326,731.667053 2701.543701,759.503906 
	C2709.262939,779.291260 2716.554688,799.245300 2724.135498,819.087402 
	C2725.436768,822.494080 2726.873779,825.945496 2728.855225,828.980164 
	C2742.280273,849.544434 2749.924072,872.642029 2757.161621,895.716492 
	C2773.639160,948.247314 2789.262939,1001.046387 2805.137695,1053.765137 
	C2809.049072,1066.754272 2812.187256,1079.988770 2816.457275,1092.852783 
	C2819.057373,1100.686279 2823.035645,1108.077271 2826.583496,1115.577759 
	C2833.153564,1129.465210 2836.811523,1144.238892 2840.293457,1159.097534 
	C2846.788086,1186.811157 2853.730469,1214.423340 2859.894287,1242.208984 
	C2863.321777,1257.658203 2865.769043,1273.338379 2868.265381,1288.976929 
	C2870.917480,1305.591309 2873.274414,1322.257812 2875.446289,1338.942383 
	C2877.409912,1354.027832 2878.762939,1369.192749 2880.722900,1384.278687 
	C2883.487305,1405.552734 2886.770508,1426.760498 2889.444580,1448.045166 
	C2891.999023,1468.378418 2894.162598,1488.762695 2896.306641,1509.144897 
	C2898.831543,1533.147583 2901.434570,1557.147949 2903.472656,1581.194214 
	C2905.262695,1602.314209 2907.165039,1623.481812 2907.531738,1644.654053 
	C2908.397217,1694.621704 2907.963379,1744.612549 2908.891602,1794.578369 
	C2909.353516,1819.441406 2911.909180,1844.259277 2912.992432,1869.120361 
	C2913.381348,1878.045044 2912.064209,1887.032104 2911.813232,1895.998901 
	C2911.227295,1916.946655 2911.176758,1937.915649 2910.224854,1958.844971 
	C2909.365967,1977.724976 2907.523438,1996.558594 2906.254639,2015.422119 
	C2905.274414,2029.995483 2904.882568,2044.617065 2903.561768,2059.156494 
	C2901.791504,2078.646729 2899.417969,2098.082764 2897.229004,2117.533691 
	C2894.745361,2139.603760 2892.648438,2161.731934 2889.516602,2183.711182 
	C2886.348389,2205.947266 2882.894287,2228.199951 2878.148438,2250.138672 
	C2872.906250,2274.372070 2865.534180,2298.139893 2860.063232,2322.330566 
	C2855.474365,2342.619385 2852.350586,2363.237061 2848.458496,2383.686523 
	C2844.869385,2402.541504 2841.302490,2421.403809 2837.399170,2440.195068 
	C2831.887207,2466.730469 2826.281982,2493.250000 2820.344727,2519.692871 
	C2810.168213,2565.015625 2798.183838,2609.742676 2780.882568,2653.054443 
	C2767.826660,2685.738281 2755.881348,2718.883301 2740.032471,2750.340332 
	C2717.588379,2794.886963 2692.889404,2838.217773 2666.618652,2880.612305 
	C2649.146484,2908.808838 2631.379150,2936.856934 2612.684326,2964.248047 
	C2601.846680,2980.126953 2588.908936,2994.572266 2576.918945,3009.665283 
	C2571.540283,3016.436035 2565.916016,3023.029297 2560.843506,3030.022705 
	C2548.419922,3047.150391 2533.519775,3061.612305 2516.184082,3073.753174 
	C2506.682861,3080.407227 2497.844727,3088.000488 2488.556885,3094.968994 
	C2466.756592,3111.325684 2444.109375,3126.654053 2423.201416,3144.074219 
	C2396.912354,3165.978027 2368.122314,3183.285889 2337.672363,3198.587402 
	C2313.043457,3210.963867 2289.749756,3225.969238 2265.385010,3238.906982 
	C2233.700928,3255.731445 2201.792725,3272.223633 2167.786865,3284.066162 
	C2155.577637,3288.318115 2143.205078,3292.102295 2130.130859,3296.246582 
M2331.280029,1229.956421 
	C2340.306396,1232.091675 2349.235840,1235.064697 2358.386719,1236.120850 
	C2367.116455,1237.128296 2376.520264,1237.866333 2384.859375,1235.727295 
	C2421.581299,1226.308350 2445.448975,1203.156372 2456.210693,1166.416870 
	C2461.458008,1148.504395 2462.413086,1130.200684 2460.398438,1112.156616 
	C2457.701904,1088.002930 2447.240967,1067.261841 2423.681152,1056.727417 
	C2409.526611,1050.398315 2394.480225,1046.059448 2379.810059,1040.896240 
	C2378.595703,1040.468872 2377.195068,1040.539551 2375.876465,1040.443970 
	C2352.760986,1038.768555 2330.884521,1043.174927 2310.719727,1054.648193 
	C2296.426514,1062.780884 2283.552002,1072.609253 2276.969482,1088.564941 
	C2262.402344,1123.877075 2262.808350,1158.219116 2283.082520,1191.533447 
	C2294.197021,1209.796875 2308.667969,1223.614868 2331.280029,1229.956421 
M1729.123291,1185.963989 
	C1745.259888,1195.983765 1762.317749,1203.302490 1781.790283,1200.284546 
	C1793.522705,1198.466309 1805.025146,1195.145874 1816.615112,1192.432861 
	C1830.426880,1189.199829 1841.853271,1181.370728 1850.627808,1170.923706 
	C1878.194824,1138.102173 1885.477051,1100.890869 1871.416260,1060.122559 
	C1867.619873,1049.114990 1862.342773,1038.503418 1853.008057,1031.011475 
	C1839.447021,1020.127502 1824.540771,1011.388062 1807.440552,1007.328735 
	C1789.838623,1003.150269 1772.117554,1001.661133 1754.552490,1007.829407 
	C1747.994507,1010.132385 1741.567383,1012.872253 1734.902222,1014.794556 
	C1707.600830,1022.668518 1691.615234,1040.914551 1685.938477,1068.314819 
	C1682.539673,1084.720215 1682.934570,1101.453003 1686.133545,1117.743286 
	C1691.539185,1145.271729 1703.231445,1169.397827 1729.123291,1185.963989 
M2150.988281,1406.421143 
	C2160.935547,1406.421143 2170.882812,1406.421143 2180.394043,1406.421143 
	C2182.627441,1402.679199 2184.483643,1399.913940 2185.973145,1396.963623 
	C2187.154785,1394.622803 2188.069580,1392.106812 2188.786133,1389.578857 
	C2191.270996,1380.815063 2187.970459,1376.281616 2178.811279,1375.693237 
	C2177.815430,1375.629272 2176.812256,1375.689209 2175.812500,1375.676025 
	C2136.522217,1375.156250 2097.233154,1374.405273 2057.941162,1374.172485 
	C2010.954956,1373.894165 1963.966187,1374.001709 1916.979004,1374.121582 
	C1912.414429,1374.133179 1907.802368,1375.175415 1903.306030,1376.164795 
	C1899.657593,1376.967773 1897.767212,1379.664917 1897.723145,1383.456177 
	C1897.602783,1393.792480 1909.470581,1405.532227 1920.090698,1405.572388 
	C1996.391724,1405.860840 2072.692627,1406.139404 2150.988281,1406.421143 
M2786.346436,1914.138428 
	C2788.410400,1916.226318 2790.218018,1918.685303 2792.592285,1920.323242 
	C2797.289795,1923.563965 2800.431396,1922.629028 2802.680420,1917.331421 
	C2803.666748,1915.007568 2804.182617,1912.209717 2803.968262,1909.707886 
	C2803.530518,1904.596436 2796.407227,1900.796021 2790.013916,1901.859375 
	C2784.730469,1902.738281 2783.501465,1905.601562 2786.346436,1914.138428 
M1805.919800,200.675568 
	C1806.840698,198.686035 1809.065186,195.948029 1808.434448,194.849365 
	C1806.652100,191.745148 1807.877319,189.263107 1808.251221,186.370865 
	C1808.496948,184.469635 1807.673950,181.425247 1806.273071,180.510910 
	C1802.574341,178.096497 1798.316284,179.079865 1795.256836,181.866150 
	C1793.738037,183.249344 1792.441406,186.995422 1793.249634,188.431152 
	C1796.067139,193.437317 1798.214355,199.402802 1805.919800,200.675568 
M1088.338745,2996.131836 
	C1091.320801,3000.553223 1091.791748,3007.236816 1099.500488,3008.229248 
	C1100.511475,3006.189209 1101.520020,3004.201416 1102.483643,3002.191895 
	C1103.056030,3000.998291 1103.808960,2999.818115 1104.046753,2998.550537 
	C1104.975220,2993.600098 1101.181885,2987.797852 1096.754150,2987.166016 
	C1091.918091,2986.476074 1089.112793,2988.836426 1088.338745,2996.131836 
M1634.048340,2639.839844 
	C1627.558105,2643.724365 1627.149902,2646.606445 1632.121460,2652.543457 
	C1634.948242,2655.919434 1638.364258,2657.845215 1642.446411,2655.378906 
	C1646.226196,2653.095703 1649.052002,2649.780762 1647.999023,2644.759521 
	C1647.031982,2640.148682 1643.473145,2639.663818 1639.650757,2639.672119 
	C1638.331299,2639.675049 1637.011841,2639.681152 1634.048340,2639.839844 
M2758.170410,1885.694824 
	C2760.072510,1885.405029 2761.970703,1884.900513 2763.877441,1884.865234 
	C2769.778564,1884.755371 2771.719238,1882.338013 2769.155762,1877.438843 
	C2767.527588,1874.326416 2765.085449,1871.640015 2763.174561,1868.992676 
	C2758.488525,1868.168335 2754.748047,1868.899170 2752.823975,1873.230713 
	C2750.619629,1878.193726 2752.274902,1882.168335 2758.170410,1885.694824 
M2284.208252,1802.757324 
	C2286.956055,1807.853394 2288.840332,1813.701904 2295.040039,1815.842651 
	C2301.471191,1809.090210 2302.834229,1802.921143 2298.915527,1799.342163 
	C2295.610107,1796.323364 2288.790039,1797.222290 2284.208252,1802.757324 
M2700.735352,1432.972534 
	C2705.210693,1429.749756 2706.080078,1425.006104 2706.020752,1419.985229 
	C2705.954590,1414.398071 2704.670166,1413.344727 2698.799316,1413.547485 
	C2692.974854,1413.748657 2689.908203,1416.243774 2690.916504,1420.926025 
	C2691.998535,1425.950928 2693.287109,1431.323120 2700.735352,1432.972534 
M2021.123657,3282.595459 
	C2019.867554,3282.916016 2018.605957,3283.216553 2017.356201,3283.560547 
	C2014.021240,3284.479004 2010.187256,3286.279785 2011.056519,3289.816650 
	C2011.982910,3293.586426 2015.002441,3296.977051 2017.633667,3300.088867 
	C2018.226929,3300.790283 2021.562134,3300.267334 2022.664551,3299.252930 
	C2027.296265,3294.992188 2027.092285,3288.432617 2021.123657,3282.595459 
M2721.439697,1996.213745 
	C2723.408203,1995.947021 2725.513184,1996.033691 2727.315918,1995.337891 
	C2730.761719,1994.007812 2731.937012,1990.578735 2729.878174,1988.125977 
	C2727.325195,1985.084595 2723.594727,1982.782227 2719.948975,1981.054810 
	C2718.810547,1980.515503 2715.066406,1982.519897 2714.649170,1983.972534 
	C2713.446045,1988.163574 2713.447266,1992.643799 2717.890625,1995.513184 
	C2718.430176,1995.861694 2719.132812,1995.958618 2721.439697,1996.213745 
M2418.547852,2917.474854 
	C2419.779785,2923.691650 2421.695312,2929.312500 2429.524414,2930.424316 
	C2430.575439,2928.774170 2431.499268,2927.463867 2432.270752,2926.069336 
	C2432.899902,2924.931885 2433.532227,2923.739990 2433.842773,2922.492676 
	C2435.251221,2916.830811 2430.787598,2911.893066 2425.041504,2913.048828 
	C2422.952393,2913.469482 2421.102539,2915.078125 2418.547852,2917.474854 
M2706.054199,873.041992 
	C2706.488281,871.810486 2707.052734,870.607666 2707.331299,869.341919 
	C2708.128418,865.717712 2707.293457,862.238098 2703.389648,861.696472 
	C2700.142578,861.245972 2696.001465,861.540771 2693.431641,863.261230 
	C2689.693848,865.763611 2693.179199,869.020630 2694.496338,871.796631 
	C2695.050049,872.964539 2695.780273,874.076050 2696.580566,875.095093 
	C2699.857178,879.267029 2702.925781,879.243042 2706.054199,873.041992 
M1907.664795,2062.510742 
	C1905.406982,2070.231201 1907.211426,2073.163086 1916.343018,2076.062012 
	C1917.020142,2075.187744 1917.888428,2074.272705 1918.510254,2073.213379 
	C1919.333374,2071.811035 1920.127319,2070.351318 1920.647827,2068.819092 
	C1922.542236,2063.242188 1920.229492,2059.768311 1914.362061,2059.744873 
	C1912.524170,2059.737549 1910.681641,2060.853516 1907.664795,2062.510742 
M1149.099365,3074.296631 
	C1145.536499,3071.437256 1141.673340,3071.627930 1138.116821,3073.908691 
	C1136.770386,3074.772461 1135.198120,3077.379395 1135.606689,3078.518555 
	C1137.294312,3083.224854 1138.493652,3088.803467 1146.350708,3089.526855 
	C1147.581543,3084.800293 1148.779175,3080.201172 1149.099365,3074.296631 
M2180.371582,381.497803 
	C2182.468506,391.585510 2183.310547,392.577637 2191.669678,393.934113 
	C2192.549072,390.618073 2193.930420,387.262909 2194.244873,383.810455 
	C2194.791260,377.818604 2191.630371,375.327942 2185.821777,376.941528 
	C2184.041748,377.435944 2182.559570,379.000977 2180.371582,381.497803 
M1918.839600,3265.344727 
	C1919.302368,3271.701904 1921.777344,3276.499268 1928.635986,3278.448242 
	C1929.892212,3276.423828 1931.177124,3274.848633 1931.916382,3273.049805 
	C1933.126831,3270.103760 1935.932129,3266.508789 1932.474854,3264.028809 
	C1930.178589,3262.381592 1926.422852,3262.576172 1923.293701,3262.385986 
	C1922.171143,3262.317871 1920.970215,3263.538818 1918.839600,3265.344727 
M1139.613281,1734.832520 
	C1140.314209,1731.080933 1142.554321,1726.591919 1137.918945,1724.300415 
	C1133.689331,1722.209473 1129.771240,1724.398438 1125.911987,1728.317139 
	C1127.544922,1731.429565 1128.624878,1735.059082 1130.951538,1737.500854 
	C1133.516602,1740.192993 1137.234985,1741.848511 1139.613281,1734.832520 
M2175.886230,423.884521 
	C2172.751465,419.135925 2168.341309,420.910858 2164.545410,422.252930 
	C2163.255127,422.709137 2161.732666,426.436737 2162.345703,427.601959 
	C2164.072754,430.884155 2166.325439,435.174896 2169.342041,436.194458 
	C2173.958008,437.754578 2174.014404,432.001068 2175.752441,429.209106 
	C2176.365723,428.223480 2176.077148,426.676300 2175.886230,423.884521 
M948.776611,2558.837891 
	C952.843445,2564.059082 956.421265,2562.228760 960.769775,2557.766846 
	C956.060913,2554.422607 956.358459,2549.730225 957.245239,2545.045654 
	C949.358337,2545.368408 947.761597,2547.755859 948.776611,2558.837891 
M1528.353271,335.331238 
	C1523.103271,328.818054 1523.035767,328.814362 1515.344727,334.854187 
	C1516.379272,339.614624 1517.839111,344.058319 1524.461914,345.907928 
	C1525.853760,342.697205 1527.114136,339.789825 1528.353271,335.331238 
M990.053223,1305.232788 
	C995.053650,1305.259277 997.472351,1303.306641 997.527954,1298.194214 
	C997.548889,1296.275269 996.296936,1293.457642 994.773438,1292.643066 
	C993.083008,1291.739014 989.910217,1291.914795 988.331177,1292.999878 
	C986.924438,1293.966797 986.202332,1296.849976 986.308960,1298.826294 
	C986.405640,1300.616699 988.029053,1302.324585 990.053223,1305.232788 
M1452.868774,1444.437866 
	C1443.921631,1443.752563 1446.531372,1451.400635 1443.706177,1455.703979 
	C1447.612183,1458.474365 1451.230713,1459.790161 1454.153320,1456.766846 
	C1457.394043,1453.414429 1457.363770,1449.123291 1452.868774,1444.437866 
M1660.087280,236.903214 
	C1655.942993,235.734665 1652.982422,237.169449 1650.811401,241.388641 
	C1652.089966,243.449509 1653.107178,246.081467 1654.986816,247.730469 
	C1656.042358,248.656464 1659.614502,248.686798 1660.166748,247.860367 
	C1662.194824,244.825134 1665.825073,241.479172 1660.087280,236.903214 
M1674.689941,285.272125 
	C1677.904297,281.570343 1679.557617,277.566803 1677.025024,271.564209 
	C1673.368286,272.248230 1669.854370,272.905548 1665.718140,273.679230 
	C1667.725830,279.131866 1667.605835,284.200806 1674.689941,285.272125 
M2334.286865,1817.991211 
	C2332.981689,1810.333862 2330.940918,1809.703613 2321.927246,1814.552246 
	C2323.493408,1818.967407 2324.457764,1823.734985 2330.398926,1825.723267 
	C2331.725342,1823.434692 2332.850586,1821.493164 2334.286865,1817.991211 
M1578.321411,802.209045 
	C1579.841919,803.657532 1581.362549,805.106018 1583.948853,807.569763 
	C1585.717041,803.380371 1586.977539,800.393921 1588.333252,797.181885 
	C1579.189575,795.207336 1579.189575,795.207336 1578.321411,802.209045 
M1623.977417,846.759277 
	C1623.842896,844.748474 1623.708374,842.737671 1623.573853,840.726929 
	C1622.979736,840.605530 1622.385620,840.484070 1621.791504,840.362671 
	C1619.549072,844.369202 1617.306641,848.375732 1614.866455,852.735596 
	C1621.336304,855.552734 1621.884644,851.155823 1623.977417,846.759277 
z"/>
<path fill="#100E0E" opacity="1.000000" stroke="none" 
	d="
M2330.548340,1229.641357 
	C2308.667969,1223.614868 2294.197021,1209.796875 2283.082520,1191.533447 
	C2262.808350,1158.219116 2262.402344,1123.877075 2276.969482,1088.564941 
	C2283.552002,1072.609253 2296.426514,1062.780884 2310.719727,1054.648193 
	C2330.884521,1043.174927 2352.760986,1038.768555 2375.876465,1040.443970 
	C2377.195068,1040.539551 2378.595703,1040.468872 2379.810059,1040.896240 
	C2394.480225,1046.059448 2409.526611,1050.398315 2423.681152,1056.727417 
	C2447.240967,1067.261841 2457.701904,1088.002930 2460.398438,1112.156616 
	C2462.413086,1130.200684 2461.458008,1148.504395 2456.210693,1166.416870 
	C2445.448975,1203.156372 2421.581299,1226.308350 2384.859375,1235.727295 
	C2376.520264,1237.866333 2367.116455,1237.128296 2358.386719,1236.120850 
	C2349.235840,1235.064697 2340.306396,1232.091675 2330.548340,1229.641357 
z"/>
<path fill="#110E0E" opacity="1.000000" stroke="none" 
	d="
M1728.473877,1185.640137 
	C1703.231445,1169.397827 1691.539185,1145.271729 1686.133545,1117.743286 
	C1682.934570,1101.453003 1682.539673,1084.720215 1685.938477,1068.314819 
	C1691.615234,1040.914551 1707.600830,1022.668518 1734.902222,1014.794556 
	C1741.567383,1012.872253 1747.994507,1010.132385 1754.552490,1007.829407 
	C1772.117554,1001.661133 1789.838623,1003.150269 1807.440552,1007.328735 
	C1824.540771,1011.388062 1839.447021,1020.127502 1853.008057,1031.011475 
	C1862.342773,1038.503418 1867.619873,1049.114990 1871.416260,1060.122559 
	C1885.477051,1100.890869 1878.194824,1138.102173 1850.627808,1170.923706 
	C1841.853271,1181.370728 1830.426880,1189.199829 1816.615112,1192.432861 
	C1805.025146,1195.145874 1793.522705,1198.466309 1781.790283,1200.284546 
	C1762.317749,1203.302490 1745.259888,1195.983765 1728.473877,1185.640137 
z"/>
<path fill="#141212" opacity="1.000000" stroke="none" 
	d="
M2149.990967,1406.421143 
	C2072.692627,1406.139404 1996.391724,1405.860840 1920.090698,1405.572388 
	C1909.470581,1405.532227 1897.602783,1393.792480 1897.723145,1383.456177 
	C1897.767212,1379.664917 1899.657593,1376.967773 1903.306030,1376.164795 
	C1907.802368,1375.175415 1912.414429,1374.133179 1916.979004,1374.121582 
	C1963.966187,1374.001709 2010.954956,1373.894165 2057.941162,1374.172485 
	C2097.233154,1374.405273 2136.522217,1375.156250 2175.812500,1375.676025 
	C2176.812256,1375.689209 2177.815430,1375.629272 2178.811279,1375.693237 
	C2187.970459,1376.281616 2191.270996,1380.815063 2188.786133,1389.578857 
	C2188.069580,1392.106812 2187.154785,1394.622803 2185.973145,1396.963623 
	C2184.483643,1399.913940 2182.627441,1402.679199 2180.394043,1406.421143 
	C2170.882812,1406.421143 2160.935547,1406.421143 2149.990967,1406.421143 
z"/>
<path fill="#393A3A" opacity="1.000000" stroke="none" 
	d="
M2785.773438,1913.606934 
	C2783.501465,1905.601562 2784.730469,1902.738281 2790.013916,1901.859375 
	C2796.407227,1900.796021 2803.530518,1904.596436 2803.968262,1909.707886 
	C2804.182617,1912.209717 2803.666748,1915.007568 2802.680420,1917.331421 
	C2800.431396,1922.629028 2797.289795,1923.563965 2792.592285,1920.323242 
	C2790.218018,1918.685303 2788.410400,1916.226318 2785.773438,1913.606934 
z"/>
<path fill="#757676" opacity="1.000000" stroke="none" 
	d="
M1805.304932,200.967316 
	C1798.214355,199.402802 1796.067139,193.437317 1793.249634,188.431152 
	C1792.441406,186.995422 1793.738037,183.249344 1795.256836,181.866150 
	C1798.316284,179.079865 1802.574341,178.096497 1806.273071,180.510910 
	C1807.673950,181.425247 1808.496948,184.469635 1808.251221,186.370865 
	C1807.877319,189.263107 1806.652100,191.745148 1808.434448,194.849365 
	C1809.065186,195.948029 1806.840698,198.686035 1805.304932,200.967316 
z"/>
<path fill="#393A3A" opacity="1.000000" stroke="none" 
	d="
M1088.096680,2995.393066 
	C1089.112793,2988.836426 1091.918091,2986.476074 1096.754150,2987.166016 
	C1101.181885,2987.797852 1104.975220,2993.600098 1104.046753,2998.550537 
	C1103.808960,2999.818115 1103.056030,3000.998291 1102.483643,3002.191895 
	C1101.520020,3004.201416 1100.511475,3006.189209 1099.500488,3008.229248 
	C1091.791748,3007.236816 1091.320801,3000.553223 1088.096680,2995.393066 
z"/>
<path fill="#393A3A" opacity="1.000000" stroke="none" 
	d="
M1634.870361,2639.762695 
	C1637.011841,2639.681152 1638.331299,2639.675049 1639.650757,2639.672119 
	C1643.473145,2639.663818 1647.031982,2640.148682 1647.999023,2644.759521 
	C1649.052002,2649.780762 1646.226196,2653.095703 1642.446411,2655.378906 
	C1638.364258,2657.845215 1634.948242,2655.919434 1632.121460,2652.543457 
	C1627.149902,2646.606445 1627.558105,2643.724365 1634.870361,2639.762695 
z"/>
<path fill="#3F4040" opacity="1.000000" stroke="none" 
	d="
M2757.379150,1885.445557 
	C2752.274902,1882.168335 2750.619629,1878.193726 2752.823975,1873.230713 
	C2754.748047,1868.899170 2758.488525,1868.168335 2763.174561,1868.992676 
	C2765.085449,1871.640015 2767.527588,1874.326416 2769.155762,1877.438843 
	C2771.719238,1882.338013 2769.778564,1884.755371 2763.877441,1884.865234 
	C2761.970703,1884.900513 2760.072510,1885.405029 2757.379150,1885.445557 
z"/>
<path fill="#3C3D3D" opacity="1.000000" stroke="none" 
	d="
M2284.175293,1802.023438 
	C2288.790039,1797.222290 2295.610107,1796.323364 2298.915527,1799.342163 
	C2302.834229,1802.921143 2301.471191,1809.090210 2295.040039,1815.842651 
	C2288.840332,1813.701904 2286.956055,1807.853394 2284.175293,1802.023438 
z"/>
<path fill="#393A3A" opacity="1.000000" stroke="none" 
	d="
M2700.017822,1433.083740 
	C2693.287109,1431.323120 2691.998535,1425.950928 2690.916504,1420.926025 
	C2689.908203,1416.243774 2692.974854,1413.748657 2698.799316,1413.547485 
	C2704.670166,1413.344727 2705.954590,1414.398071 2706.020752,1419.985229 
	C2706.080078,1425.006104 2705.210693,1429.749756 2700.017822,1433.083740 
z"/>
<path fill="#3C3D3D" opacity="1.000000" stroke="none" 
	d="
M2021.855469,3282.791992 
	C2027.092285,3288.432617 2027.296265,3294.992188 2022.664551,3299.252930 
	C2021.562134,3300.267334 2018.226929,3300.790283 2017.633667,3300.088867 
	C2015.002441,3296.977051 2011.982910,3293.586426 2011.056519,3289.816650 
	C2010.187256,3286.279785 2014.021240,3284.479004 2017.356201,3283.560547 
	C2018.605957,3283.216553 2019.867554,3282.916016 2021.855469,3282.791992 
z"/>
<path fill="#3F4040" opacity="1.000000" stroke="none" 
	d="
M2720.599609,1996.192993 
	C2719.132812,1995.958618 2718.430176,1995.861694 2717.890625,1995.513184 
	C2713.447266,1992.643799 2713.446045,1988.163574 2714.649170,1983.972534 
	C2715.066406,1982.519897 2718.810547,1980.515503 2719.948975,1981.054810 
	C2723.594727,1982.782227 2727.325195,1985.084595 2729.878174,1988.125977 
	C2731.937012,1990.578735 2730.761719,1994.007812 2727.315918,1995.337891 
	C2725.513184,1996.033691 2723.408203,1995.947021 2720.599609,1996.192993 
z"/>
<path fill="#3C3D3D" opacity="1.000000" stroke="none" 
	d="
M2418.845703,2916.809814 
	C2421.102539,2915.078125 2422.952393,2913.469482 2425.041504,2913.048828 
	C2430.787598,2911.893066 2435.251221,2916.830811 2433.842773,2922.492676 
	C2433.532227,2923.739990 2432.899902,2924.931885 2432.270752,2926.069336 
	C2431.499268,2927.463867 2430.575439,2928.774170 2429.524414,2930.424316 
	C2421.695312,2929.312500 2419.779785,2923.691650 2418.845703,2916.809814 
z"/>
<path fill="#393A3A" opacity="1.000000" stroke="none" 
	d="
M2705.862793,873.782959 
	C2702.925781,879.243042 2699.857178,879.267029 2696.580566,875.095093 
	C2695.780273,874.076050 2695.050049,872.964539 2694.496338,871.796631 
	C2693.179199,869.020630 2689.693848,865.763611 2693.431641,863.261230 
	C2696.001465,861.540771 2700.142578,861.245972 2703.389648,861.696472 
	C2707.293457,862.238098 2708.128418,865.717712 2707.331299,869.341919 
	C2707.052734,870.607666 2706.488281,871.810486 2705.862793,873.782959 
z"/>
<path fill="#3C3D3D" opacity="1.000000" stroke="none" 
	d="
M1908.253052,2061.982910 
	C1910.681641,2060.853516 1912.524170,2059.737549 1914.362061,2059.744873 
	C1920.229492,2059.768311 1922.542236,2063.242188 1920.647827,2068.819092 
	C1920.127319,2070.351318 1919.333374,2071.811035 1918.510254,2073.213379 
	C1917.888428,2074.272705 1917.020142,2075.187744 1916.343018,2076.062012 
	C1907.211426,2073.163086 1905.406982,2070.231201 1908.253052,2061.982910 
z"/>
<path fill="#3C3D3D" opacity="1.000000" stroke="none" 
	d="
M1149.538086,3074.949219 
	C1148.779175,3080.201172 1147.581543,3084.800293 1146.350708,3089.526855 
	C1138.493652,3088.803467 1137.294312,3083.224854 1135.606689,3078.518555 
	C1135.198120,3077.379395 1136.770386,3074.772461 1138.116821,3073.908691 
	C1141.673340,3071.627930 1145.536499,3071.437256 1149.538086,3074.949219 
z"/>
<path fill="#3C3D3D" opacity="1.000000" stroke="none" 
	d="
M2180.656250,380.786774 
	C2182.559570,379.000977 2184.041748,377.435944 2185.821777,376.941528 
	C2191.630371,375.327942 2194.791260,377.818604 2194.244873,383.810455 
	C2193.930420,387.262909 2192.549072,390.618073 2191.669678,393.934113 
	C2183.310547,392.577637 2182.468506,391.585510 2180.656250,380.786774 
z"/>
<path fill="#3C3D3D" opacity="1.000000" stroke="none" 
	d="
M1919.322388,3264.758057 
	C1920.970215,3263.538818 1922.171143,3262.317871 1923.293701,3262.385986 
	C1926.422852,3262.576172 1930.178589,3262.381592 1932.474854,3264.028809 
	C1935.932129,3266.508789 1933.126831,3270.103760 1931.916382,3273.049805 
	C1931.177124,3274.848633 1929.892212,3276.423828 1928.635986,3278.448242 
	C1921.777344,3276.499268 1919.302368,3271.701904 1919.322388,3264.758057 
z"/>
<path fill="#3C3D3D" opacity="1.000000" stroke="none" 
	d="
M1139.378296,1735.531128 
	C1137.234985,1741.848511 1133.516602,1740.192993 1130.951538,1737.500854 
	C1128.624878,1735.059082 1127.544922,1731.429565 1125.911987,1728.317139 
	C1129.771240,1724.398438 1133.689331,1722.209473 1137.918945,1724.300415 
	C1142.554321,1726.591919 1140.314209,1731.080933 1139.378296,1735.531128 
z"/>
<path fill="#393A3A" opacity="1.000000" stroke="none" 
	d="
M2176.043457,424.635071 
	C2176.077148,426.676300 2176.365723,428.223480 2175.752441,429.209106 
	C2174.014404,432.001068 2173.958008,437.754578 2169.342041,436.194458 
	C2166.325439,435.174896 2164.072754,430.884155 2162.345703,427.601959 
	C2161.732666,426.436737 2163.255127,422.709137 2164.545410,422.252930 
	C2168.341309,420.910858 2172.751465,419.135925 2176.043457,424.635071 
z"/>
<path fill="#474848" opacity="1.000000" stroke="none" 
	d="
M948.475159,2558.186523 
	C947.761597,2547.755859 949.358337,2545.368408 957.245239,2545.045654 
	C956.358459,2549.730225 956.060913,2554.422607 960.769775,2557.766846 
	C956.421265,2562.228760 952.843445,2564.059082 948.475159,2558.186523 
z"/>
<path fill="#7B7C7C" opacity="1.000000" stroke="none" 
	d="
M1528.363892,336.106842 
	C1527.114136,339.789825 1525.853760,342.697205 1524.461914,345.907928 
	C1517.839111,344.058319 1516.379272,339.614624 1515.344727,334.854187 
	C1523.035767,328.814362 1523.103271,328.818054 1528.363892,336.106842 
z"/>
<path fill="#757676" opacity="1.000000" stroke="none" 
	d="
M989.516235,1304.650879 
	C988.029053,1302.324585 986.405640,1300.616699 986.308960,1298.826294 
	C986.202332,1296.849976 986.924438,1293.966797 988.331177,1292.999878 
	C989.910217,1291.914795 993.083008,1291.739014 994.773438,1292.643066 
	C996.296936,1293.457642 997.548889,1296.275269 997.527954,1298.194214 
	C997.472351,1303.306641 995.053650,1305.259277 989.516235,1304.650879 
z"/>
<path fill="#3F4040" opacity="1.000000" stroke="none" 
	d="
M1453.572266,1444.839966 
	C1457.363770,1449.123291 1457.394043,1453.414429 1454.153320,1456.766846 
	C1451.230713,1459.790161 1447.612183,1458.474365 1443.706177,1455.703979 
	C1446.531372,1451.400635 1443.921631,1443.752563 1453.572266,1444.839966 
z"/>
<path fill="#7B7C7C" opacity="1.000000" stroke="none" 
	d="
M1660.697021,237.234741 
	C1665.825073,241.479172 1662.194824,244.825134 1660.166748,247.860367 
	C1659.614502,248.686798 1656.042358,248.656464 1654.986816,247.730469 
	C1653.107178,246.081467 1652.089966,243.449509 1650.811401,241.388641 
	C1652.982422,237.169449 1655.942993,235.734665 1660.697021,237.234741 
z"/>
<path fill="#7B7C7C" opacity="1.000000" stroke="none" 
	d="
M1673.963989,285.519226 
	C1667.605835,284.200806 1667.725830,279.131866 1665.718140,273.679230 
	C1669.854370,272.905548 1673.368286,272.248230 1677.025024,271.564209 
	C1679.557617,277.566803 1677.904297,281.570343 1673.963989,285.519226 
z"/>
<path fill="#393A3A" opacity="1.000000" stroke="none" 
	d="
M2334.131348,1818.771362 
	C2332.850586,1821.493164 2331.725342,1823.434692 2330.398926,1825.723267 
	C2324.457764,1823.734985 2323.493408,1818.967407 2321.927246,1814.552246 
	C2330.940918,1809.703613 2332.981689,1810.333862 2334.131348,1818.771362 
z"/>
<path fill="#474848" opacity="1.000000" stroke="none" 
	d="
M1578.036377,801.495422 
	C1579.189575,795.207336 1579.189575,795.207336 1588.333252,797.181885 
	C1586.977539,800.393921 1585.717041,803.380371 1583.948853,807.569763 
	C1581.362549,805.106018 1579.841919,803.657532 1578.036377,801.495422 
z"/>
<path fill="#474848" opacity="1.000000" stroke="none" 
	d="
M1623.679932,847.473022 
	C1621.884644,851.155823 1621.336304,855.552734 1614.866455,852.735596 
	C1617.306641,848.375732 1619.549072,844.369202 1621.791504,840.362671 
	C1622.385620,840.484070 1622.979736,840.605530 1623.573853,840.726929 
	C1623.708374,842.737671 1623.842896,844.748474 1623.679932,847.473022 
z"/>
</svg>